<svg xmlns="http://www.w3.org/2000/svg" xmlns:xlink="http://www.w3.org/1999/xlink" viewBox="0 0 201 201" xmlns:v="https://vecta.io/nano"><defs><path id="A" d="M0 0h201v201H0z"/><path id="B" d="M90.4 0h-9.5v9.5c0 1.3 1.1 2.4 2.4 2.4h3.2c.1 0 .2-.1.2-.2v-.9c0-.1-.1-.2-.2-.2h-3.2c-.6 0-1.2-.5-1.2-1.2V1.3h8.2c.6 0 1.2.5 1.2 1.2v1.3c0 .1.1.2.2.2h.9c.1 0 .2-.1.2-.2V2.4c0-1.3-1.1-2.4-2.4-2.4z"/><path id="C" d="M9.5 27H0v9.5c0 1.3 1.1 2.4 2.4 2.4h3.2c.1 0 .2-.1.2-.2v-.9c0-.1-.1-.2-.2-.2H2.4c-.6 0-1.2-.5-1.2-1.2v-8.2h8.2c.6 0 1.2.5 1.2 1.2v1.3c0 .1.1.2.2.2h.9c.1 0 .2-.1.2-.2v-1.3c.1-1.3-1-2.4-2.4-2.4z"/><path id="D" d="M36.5 27H27v9.5c0 1.3 1.1 2.4 2.4 2.4h3.2c.1 0 .2-.1.2-.2v-.9c0-.1-.1-.2-.2-.2h-3.2c-.6 0-1.2-.5-1.2-1.2v-8.2h8.2c.6 0 1.2.5 1.2 1.2v1.3c0 .1.1.2.2.2h.9c.1 0 .2-.1.2-.2v-1.3c0-1.3-1.1-2.4-2.4-2.4z"/><path id="E" d="M63.4 27h-9.5v9.5c0 1.3 1.1 2.4 2.4 2.4h3.2c.1 0 .2-.1.2-.2v-.9c0-.1-.1-.2-.2-.2h-3.2c-.6 0-1.2-.5-1.2-1.2v-8.2h8.2c.6 0 1.2.5 1.2 1.2v1.3c0 .1.1.2.2.2h.9c.1 0 .2-.1.2-.2v-1.3c0-1.3-1-2.4-2.4-2.4z"/><path id="F" d="M90.4 27h-9.5v9.5c0 1.3 1.1 2.4 2.4 2.4h3.2c.1 0 .2-.1.2-.2v-.9c0-.1-.1-.2-.2-.2h-3.2c-.6 0-1.2-.5-1.2-1.2v-8.2h8.2c.6 0 1.2.5 1.2 1.2v1.3c0 .1.1.2.2.2h.9c.1 0 .2-.1.2-.2v-1.3c0-1.3-1.1-2.4-2.4-2.4z"/><path id="G" d="M144.2 27h-9.5v9.5c0 1.3 1.1 2.4 2.4 2.4h3.2c.1 0 .2-.1.2-.2v-.9c0-.1-.1-.2-.2-.2h-3.2c-.6 0-1.2-.5-1.2-1.2v-8.2h8.2c.6 0 1.2.5 1.2 1.2v1.3c0 .1.1.2.2.2h.9c.1 0 .2-.1.2-.2v-1.3c.1-1.3-1-2.4-2.4-2.4z"/><path id="H" d="M198.1 27h-9.5v9.5c0 1.3 1.1 2.4 2.4 2.4h3.2c.1 0 .2-.1.2-.2v-.9c0-.1-.1-.2-.2-.2H191c-.6 0-1.2-.5-1.2-1.2v-8.2h8.2c.6 0 1.2.5 1.2 1.2v1.3c0 .1.1.2.2.2h.9c.1 0 .2-.1.2-.2v-1.3c.1-1.3-1-2.4-2.4-2.4z"/><path id="I" d="M90.4 107.8h-9.5v9.5c0 1.3 1.1 2.4 2.4 2.4h3.2c.1 0 .2-.1.2-.2v-.9c0-.1-.1-.2-.2-.2h-3.2c-.6 0-1.2-.5-1.2-1.2V109h8.2c.6 0 1.2.5 1.2 1.2v1.3c0 .1.1.2.2.2h.9c.1 0 .2-.1.2-.2v-1.3c0-1.3-1.1-2.4-2.4-2.4z"/><path id="J" d="M90.4 134.8h-9.5v9.5c0 1.3 1.1 2.4 2.4 2.4h3.2c.1 0 .2-.1.2-.2v-.9c0-.1-.1-.2-.2-.2h-3.2c-.6 0-1.2-.5-1.2-1.2V136h8.2c.6 0 1.2.5 1.2 1.2v1.3c0 .1.1.2.2.2h.9c.1 0 .2-.1.2-.2v-1.3c0-1.3-1.1-2.4-2.4-2.4z"/><path id="K" d="M90.4 161.7h-9.5v9.5c0 1.3 1.1 2.4 2.4 2.4h3.2c.1 0 .2-.1.2-.2v-.9c0-.1-.1-.2-.2-.2h-3.2c-.6 0-1.2-.5-1.2-1.2V163h8.2c.6 0 1.2.5 1.2 1.2v1.3c0 .1.1.2.2.2h.9c.1 0 .2-.1.2-.2v-1.3c0-1.4-1.1-2.5-2.4-2.5z"/></defs><clipPath id="L"><use xlink:href="#A"/></clipPath><g opacity=".41" clip-path="url(#L)" fill="#009fe3"><path d="M9.5 0H0v9.5C0 10.9 1.1 12 2.4 12h3.2c.1 0 .2-.1.2-.2v-.9c0-.1-.1-.2-.2-.2H2.4c-.6 0-1.2-.5-1.2-1.2V1.3h8.2c.6 0 1.2.5 1.2 1.2v1.3c0 .1.1.2.2.2h.9c.1 0 .2-.1.2-.2V2.4C12 1.1 10.9 0 9.5 0zm27 0H27v9.5c0 1.3 1.1 2.4 2.4 2.4h3.2c.1 0 .2-.1.2-.2v-.9c0-.1-.1-.2-.2-.2h-3.2c-.6 0-1.2-.5-1.2-1.2V1.3h8.2c.6 0 1.2.5 1.2 1.2v1.3c0 .1.1.2.2.2h.9c.1 0 .2-.1.2-.2V2.4c0-1.3-1.1-2.4-2.4-2.4zm26.9 0h-9.5v9.5c0 1.3 1.1 2.4 2.4 2.4h3.2c.1 0 .2-.1.2-.2v-.9c0-.1-.1-.2-.2-.2h-3.2c-.6 0-1.2-.5-1.2-1.2V1.3h8.2c.6 0 1.2.5 1.2 1.2v1.3c0 .1.1.2.2.2h.9c.1 0 .2-.1.2-.2V2.4c0-1.3-1-2.4-2.4-2.4z"/><use xlink:href="#B"/><path d="M117.3 0h-9.5v9.5c0 1.3 1.1 2.4 2.4 2.4h3.2c.1 0 .2-.1.2-.2v-.9c0-.1-.1-.2-.2-.2h-3.2c-.6 0-1.2-.5-1.2-1.2V1.3h8.2c.6 0 1.2.5 1.2 1.2v1.3c0 .1.1.2.2.2h.9c.1 0 .2-.1.2-.2V2.4c0-1.3-1.1-2.4-2.4-2.4zm26.9 0h-9.5v9.5c0 1.3 1.1 2.4 2.4 2.4h3.2c.1 0 .2-.1.2-.2v-.9c0-.1-.1-.2-.2-.2h-3.2c-.6 0-1.2-.5-1.2-1.2V1.3h8.2c.6 0 1.2.5 1.2 1.2v1.3c0 .1.1.2.2.2h.9c.1 0 .2-.1.2-.2V2.4c.1-1.3-1-2.4-2.4-2.4zm27 0h-9.5v9.5c0 1.3 1.1 2.4 2.4 2.4h3.2c.1 0 .2-.1.2-.2v-.9c0-.1-.1-.2-.2-.2h-3.2c-.6 0-1.2-.5-1.2-1.2V1.3h8.2c.6 0 1.2.5 1.2 1.2v1.3c0 .1.1.2.2.2h.9c.1 0 .2-.1.2-.2V2.4c0-1.3-1.1-2.4-2.4-2.4zm26.9 0h-9.5v9.5c0 1.3 1.1 2.4 2.4 2.4h3.2c.1 0 .2-.1.2-.2v-.9c0-.1-.1-.2-.2-.2H191c-.6 0-1.2-.5-1.2-1.2V1.3h8.2c.6 0 1.2.5 1.2 1.2v1.3c0 .1.1.2.2.2h.9c.1 0 .2-.1.2-.2V2.4c.1-1.3-1-2.4-2.4-2.4z"/><use xlink:href="#C"/><use xlink:href="#D"/><use xlink:href="#E"/><use xlink:href="#F"/><path d="M117.3 27h-9.5v9.5c0 1.3 1.1 2.4 2.4 2.4h3.2c.1 0 .2-.1.2-.2v-.9c0-.1-.1-.2-.2-.2h-3.2c-.6 0-1.2-.5-1.2-1.2v-8.2h8.2c.6 0 1.2.5 1.2 1.2v1.3c0 .1.1.2.2.2h.9c.1 0 .2-.1.2-.2v-1.3c0-1.3-1.1-2.4-2.4-2.4z"/><use xlink:href="#G"/><path d="M171.2 27h-9.5v9.5c0 1.3 1.1 2.4 2.4 2.4h3.2c.1 0 .2-.1.2-.2v-.9c0-.1-.1-.2-.2-.2h-3.2c-.6 0-1.2-.5-1.2-1.2v-8.2h8.2c.6 0 1.2.5 1.2 1.2v1.3c0 .1.1.2.2.2h.9c.1 0 .2-.1.2-.2v-1.3c0-1.3-1.1-2.4-2.4-2.4z"/><use xlink:href="#H"/><path d="M9.5 53.9H0v9.5c0 1.3 1.1 2.4 2.4 2.4h3.2c.1 0 .2-.1.2-.2v-.9c0-.1-.1-.2-.2-.2H2.4c-.6 0-1.2-.5-1.2-1.2v-8.2h8.2c.6 0 1.2.5 1.2 1.2v1.3c0 .1.1.2.2.2h.9c.1 0 .2-.1.2-.2v-1.3c.1-1.3-1-2.4-2.4-2.4zm27 0H27v9.5c0 1.3 1.1 2.4 2.4 2.4h3.2c.1 0 .2-.1.2-.2v-.9c0-.1-.1-.2-.2-.2h-3.2c-.6 0-1.2-.5-1.2-1.2v-8.2h8.2c.6 0 1.2.5 1.2 1.2v1.3c0 .1.1.2.2.2h.9c.1 0 .2-.1.2-.2v-1.3c0-1.3-1.1-2.4-2.4-2.4zm26.9 0h-9.5v9.5c0 1.3 1.1 2.4 2.4 2.4h3.2c.1 0 .2-.1.2-.2v-.9c0-.1-.1-.2-.2-.2h-3.2c-.6 0-1.2-.5-1.2-1.2v-8.2h8.2c.6 0 1.2.5 1.2 1.2v1.3c0 .1.1.2.2.2h.9c.1 0 .2-.1.2-.2v-1.3c0-1.3-1-2.4-2.4-2.4zm27 0h-9.5v9.5c0 1.3 1.1 2.4 2.4 2.4h3.2c.1 0 .2-.1.2-.2v-.9c0-.1-.1-.2-.2-.2h-3.2c-.6 0-1.2-.5-1.2-1.2v-8.2h8.2c.6 0 1.2.5 1.2 1.2v1.3c0 .1.1.2.2.2h.9c.1 0 .2-.1.2-.2v-1.3c0-1.3-1.1-2.4-2.4-2.4zm26.9 0h-9.5v9.5c0 1.3 1.1 2.4 2.4 2.4h3.2c.1 0 .2-.1.2-.2v-.9c0-.1-.1-.2-.2-.2h-3.2c-.6 0-1.2-.5-1.2-1.2v-8.2h8.2c.6 0 1.2.5 1.2 1.2v1.3c0 .1.1.2.2.2h.9c.1 0 .2-.1.2-.2v-1.3c0-1.3-1.1-2.4-2.4-2.4zm26.9 0h-9.5v9.5c0 1.3 1.1 2.4 2.4 2.4h3.2c.1 0 .2-.1.2-.2v-.9c0-.1-.1-.2-.2-.2h-3.2c-.6 0-1.2-.5-1.2-1.2v-8.2h8.2c.6 0 1.2.5 1.2 1.2v1.3c0 .1.1.2.2.2h.9c.1 0 .2-.1.2-.2v-1.3c.1-1.3-1-2.4-2.4-2.4zm27 0h-9.5v9.5c0 1.3 1.1 2.4 2.4 2.4h3.2c.1 0 .2-.1.2-.2v-.9c0-.1-.1-.2-.2-.2h-3.2c-.6 0-1.2-.5-1.2-1.2v-8.2h8.2c.6 0 1.2.5 1.2 1.2v1.3c0 .1.1.2.2.2h.9c.1 0 .2-.1.2-.2v-1.3c0-1.3-1.1-2.4-2.4-2.4zm26.9 0h-9.5v9.5c0 1.3 1.1 2.4 2.4 2.4h3.2c.1 0 .2-.1.2-.2v-.9c0-.1-.1-.2-.2-.2H191c-.6 0-1.2-.5-1.2-1.2v-8.2h8.2c.6 0 1.2.5 1.2 1.2v1.3c0 .1.1.2.2.2h.9c.1 0 .2-.1.2-.2v-1.3c.1-1.3-1-2.4-2.4-2.4zM9.5 80.9H0v9.5c0 1.3 1.1 2.4 2.4 2.4h3.2c.1 0 .2-.1.2-.2v-.9c0-.1-.1-.2-.2-.2H2.4c-.6 0-1.2-.5-1.2-1.2v-8.2h8.2c.6 0 1.2.5 1.2 1.2v1.3c0 .1.1.2.2.2h.9c.1 0 .2-.1.2-.2v-1.3c.1-1.3-1-2.4-2.4-2.4zm27 0H27v9.5c0 1.3 1.1 2.4 2.4 2.4h3.2c.1 0 .2-.1.2-.2v-.9c0-.1-.1-.2-.2-.2h-3.2c-.6 0-1.2-.5-1.2-1.2v-8.2h8.2c.6 0 1.2.5 1.2 1.2v1.3c0 .1.1.2.2.2h.9c.1 0 .2-.1.2-.2v-1.3c0-1.3-1.1-2.4-2.4-2.4zm26.9 0h-9.5v9.5c0 1.3 1.1 2.4 2.4 2.4h3.2c.1 0 .2-.1.2-.2v-.9c0-.1-.1-.2-.2-.2h-3.2c-.6 0-1.2-.5-1.2-1.2v-8.2h8.2c.6 0 1.2.5 1.2 1.2v1.3c0 .1.1.2.2.2h.9c.1 0 .2-.1.2-.2v-1.3c0-1.3-1-2.4-2.4-2.4zm27 0h-9.5v9.5c0 1.3 1.1 2.4 2.4 2.4h3.2c.1 0 .2-.1.2-.2v-.9c0-.1-.1-.2-.2-.2h-3.2c-.6 0-1.2-.5-1.2-1.2v-8.2h8.2c.6 0 1.2.5 1.2 1.2v1.3c0 .1.1.2.2.2h.9c.1 0 .2-.1.2-.2v-1.3c0-1.3-1.1-2.4-2.4-2.4zm26.9 0h-9.5v9.5c0 1.3 1.1 2.4 2.4 2.4h3.2c.1 0 .2-.1.2-.2v-.9c0-.1-.1-.2-.2-.2h-3.2c-.6 0-1.2-.5-1.2-1.2v-8.2h8.2c.6 0 1.2.5 1.2 1.2v1.3c0 .1.1.2.2.2h.9c.1 0 .2-.1.2-.2v-1.3c0-1.3-1.1-2.4-2.4-2.4zm26.9 0h-9.5v9.5c0 1.3 1.1 2.4 2.4 2.4h3.2c.1 0 .2-.1.2-.2v-.9c0-.1-.1-.2-.2-.2h-3.2c-.6 0-1.2-.5-1.2-1.2v-8.2h8.2c.6 0 1.2.5 1.2 1.2v1.3c0 .1.1.2.2.2h.9c.1 0 .2-.1.2-.2v-1.3c.1-1.3-1-2.4-2.4-2.4zm27 0h-9.5v9.5c0 1.3 1.1 2.4 2.4 2.4h3.2c.1 0 .2-.1.2-.2v-.9c0-.1-.1-.2-.2-.2h-3.2c-.6 0-1.2-.5-1.2-1.2v-8.2h8.2c.6 0 1.2.5 1.2 1.2v1.3c0 .1.1.2.2.2h.9c.1 0 .2-.1.2-.2v-1.3c0-1.3-1.1-2.4-2.4-2.4zm26.9 0h-9.5v9.5c0 1.3 1.1 2.4 2.4 2.4h3.2c.1 0 .2-.1.2-.2v-.9c0-.1-.1-.2-.2-.2H191c-.6 0-1.2-.5-1.2-1.2v-8.2h8.2c.6 0 1.2.5 1.2 1.2v1.3c0 .1.1.2.2.2h.9c.1 0 .2-.1.2-.2v-1.3c.1-1.3-1-2.4-2.4-2.4zM9.5 107.8H0v9.5c0 1.3 1.1 2.4 2.4 2.4h3.2c.1 0 .2-.1.2-.2v-.9c0-.1-.1-.2-.2-.2H2.4c-.6 0-1.2-.5-1.2-1.2V109h8.2c.6 0 1.2.5 1.2 1.2v1.3c0 .1.1.2.2.2h.9c.1 0 .2-.1.2-.2v-1.3c.1-1.3-1-2.4-2.4-2.4zm27 0H27v9.5c0 1.3 1.1 2.4 2.4 2.4h3.2c.1 0 .2-.1.2-.2v-.9c0-.1-.1-.2-.2-.2h-3.2c-.6 0-1.2-.5-1.2-1.2V109h8.2c.6 0 1.2.5 1.2 1.2v1.3c0 .1.1.2.2.2h.9c.1 0 .2-.1.2-.2v-1.3c0-1.3-1.1-2.4-2.4-2.4zm26.9 0h-9.5v9.5c0 1.3 1.1 2.4 2.4 2.4h3.2c.1 0 .2-.1.2-.2v-.9c0-.1-.1-.2-.2-.2h-3.2c-.6 0-1.2-.5-1.2-1.2V109h8.2c.6 0 1.2.5 1.2 1.2v1.3c0 .1.1.2.2.2h.9c.1 0 .2-.1.2-.2v-1.3c0-1.3-1-2.4-2.4-2.4z"/><use xlink:href="#I"/><path d="M117.3 107.8h-9.5v9.5c0 1.3 1.1 2.4 2.4 2.4h3.2c.1 0 .2-.1.2-.2v-.9c0-.1-.1-.2-.2-.2h-3.2c-.6 0-1.2-.5-1.2-1.2V109h8.2c.6 0 1.2.5 1.2 1.2v1.3c0 .1.1.2.2.2h.9c.1 0 .2-.1.2-.2v-1.3c0-1.3-1.1-2.4-2.4-2.4zm26.9 0h-9.5v9.5c0 1.3 1.1 2.4 2.4 2.4h3.2c.1 0 .2-.1.2-.2v-.9c0-.1-.1-.2-.2-.2h-3.2c-.6 0-1.2-.5-1.2-1.2V109h8.2c.6 0 1.2.5 1.2 1.2v1.3c0 .1.1.2.2.2h.9c.1 0 .2-.1.2-.2v-1.3c.1-1.3-1-2.4-2.4-2.4zm27 0h-9.5v9.5c0 1.3 1.1 2.4 2.4 2.4h3.2c.1 0 .2-.1.2-.2v-.9c0-.1-.1-.2-.2-.2h-3.2c-.6 0-1.2-.5-1.2-1.2V109h8.2c.6 0 1.2.5 1.2 1.2v1.3c0 .1.1.2.2.2h.9c.1 0 .2-.1.2-.2v-1.3c0-1.3-1.1-2.4-2.4-2.4zm26.9 0h-9.5v9.5c0 1.3 1.1 2.4 2.4 2.4h3.2c.1 0 .2-.1.2-.2v-.9c0-.1-.1-.2-.2-.2H191c-.6 0-1.2-.5-1.2-1.2V109h8.2c.6 0 1.2.5 1.2 1.2v1.3c0 .1.1.2.2.2h.9c.1 0 .2-.1.2-.2v-1.3c.1-1.3-1-2.4-2.4-2.4zm-188.6 27H0v9.5c0 1.3 1.1 2.4 2.4 2.4h3.2c.1 0 .2-.1.2-.2v-.9c0-.1-.1-.2-.2-.2H2.4c-.6 0-1.2-.5-1.2-1.2V136h8.2c.6 0 1.2.5 1.2 1.2v1.3c0 .1.1.2.2.2h.9c.1 0 .2-.1.2-.2v-1.3c.1-1.3-1-2.4-2.4-2.4zm27 0H27v9.5c0 1.3 1.1 2.4 2.4 2.4h3.2c.1 0 .2-.1.2-.2v-.9c0-.1-.1-.2-.2-.2h-3.2c-.6 0-1.2-.5-1.2-1.2V136h8.2c.6 0 1.2.5 1.2 1.2v1.3c0 .1.1.2.2.2h.9c.1 0 .2-.1.2-.2v-1.3c0-1.3-1.1-2.4-2.4-2.4zm26.9 0h-9.5v9.5c0 1.3 1.1 2.4 2.4 2.4h3.2c.1 0 .2-.1.2-.2v-.9c0-.1-.1-.2-.2-.2h-3.2c-.6 0-1.2-.5-1.2-1.2V136h8.2c.6 0 1.2.5 1.2 1.2v1.3c0 .1.1.2.2.2h.9c.1 0 .2-.1.2-.2v-1.3c0-1.3-1-2.4-2.4-2.4z"/><use xlink:href="#J"/><path d="M117.3 134.8h-9.5v9.5c0 1.3 1.1 2.4 2.4 2.4h3.2c.1 0 .2-.1.2-.2v-.9c0-.1-.1-.2-.2-.2h-3.2c-.6 0-1.2-.5-1.2-1.2V136h8.2c.6 0 1.2.5 1.2 1.2v1.3c0 .1.1.2.2.2h.9c.1 0 .2-.1.2-.2v-1.3c0-1.3-1.1-2.4-2.4-2.4zm26.9 0h-9.5v9.5c0 1.3 1.1 2.4 2.4 2.4h3.2c.1 0 .2-.1.2-.2v-.9c0-.1-.1-.2-.2-.2h-3.2c-.6 0-1.2-.5-1.2-1.2V136h8.2c.6 0 1.2.5 1.2 1.2v1.3c0 .1.1.2.2.2h.9c.1 0 .2-.1.2-.2v-1.3c.1-1.3-1-2.4-2.4-2.4zm27 0h-9.5v9.5c0 1.3 1.1 2.4 2.4 2.4h3.2c.1 0 .2-.1.2-.2v-.9c0-.1-.1-.2-.2-.2h-3.2c-.6 0-1.2-.5-1.2-1.2V136h8.2c.6 0 1.2.5 1.2 1.2v1.3c0 .1.1.2.2.2h.9c.1 0 .2-.1.2-.2v-1.3c0-1.3-1.1-2.4-2.4-2.4zm26.9 0h-9.5v9.5c0 1.3 1.1 2.4 2.4 2.4h3.2c.1 0 .2-.1.2-.2v-.9c0-.1-.1-.2-.2-.2H191c-.6 0-1.2-.5-1.2-1.2V136h8.2c.6 0 1.2.5 1.2 1.2v1.3c0 .1.1.2.2.2h.9c.1 0 .2-.1.2-.2v-1.3c.1-1.3-1-2.4-2.4-2.4zM9.5 161.7H0v9.5c0 1.3 1.1 2.4 2.4 2.4h3.2c.1 0 .2-.1.2-.2v-.9c0-.1-.1-.2-.2-.2H2.4c-.6 0-1.2-.5-1.2-1.2V163h8.2c.6 0 1.2.5 1.2 1.2v1.3c0 .1.1.2.2.2h.9c.1 0 .2-.1.2-.2v-1.3c.1-1.4-1-2.5-2.4-2.5zm27 0H27v9.5c0 1.3 1.1 2.4 2.4 2.4h3.2c.1 0 .2-.1.2-.2v-.9c0-.1-.1-.2-.2-.2h-3.2c-.6 0-1.2-.5-1.2-1.2V163h8.2c.6 0 1.2.5 1.2 1.2v1.3c0 .1.1.2.2.2h.9c.1 0 .2-.1.2-.2v-1.3c0-1.4-1.1-2.5-2.4-2.5zm26.9 0h-9.5v9.5c0 1.3 1.1 2.4 2.4 2.4h3.2c.1 0 .2-.1.2-.2v-.9c0-.1-.1-.2-.2-.2h-3.2c-.6 0-1.2-.5-1.2-1.2V163h8.2c.6 0 1.2.5 1.2 1.2v1.3c0 .1.1.2.2.2h.9c.1 0 .2-.1.2-.2v-1.3c0-1.4-1-2.5-2.4-2.5z"/><use xlink:href="#K"/><path d="M117.3 161.7h-9.5v9.5c0 1.3 1.1 2.4 2.4 2.4h3.2c.1 0 .2-.1.2-.2v-.9c0-.1-.1-.2-.2-.2h-3.2c-.6 0-1.2-.5-1.2-1.2V163h8.2c.6 0 1.2.5 1.2 1.2v1.3c0 .1.1.2.2.2h.9c.1 0 .2-.1.2-.2v-1.3c0-1.4-1.1-2.5-2.4-2.5zm26.9 0h-9.5v9.5c0 1.3 1.1 2.4 2.4 2.4h3.2c.1 0 .2-.1.2-.2v-.9c0-.1-.1-.2-.2-.2h-3.2c-.6 0-1.2-.5-1.2-1.2V163h8.2c.6 0 1.2.5 1.2 1.2v1.3c0 .1.1.2.2.2h.9c.1 0 .2-.1.2-.2v-1.3c.1-1.4-1-2.5-2.4-2.5zm27 0h-9.5v9.5c0 1.3 1.1 2.4 2.4 2.4h3.2c.1 0 .2-.1.2-.2v-.9c0-.1-.1-.2-.2-.2h-3.2c-.6 0-1.2-.5-1.2-1.2V163h8.2c.6 0 1.2.5 1.2 1.2v1.3c0 .1.1.2.2.2h.9c.1 0 .2-.1.2-.2v-1.3c0-1.4-1.1-2.5-2.4-2.5zm26.9 0h-9.5v9.5c0 1.3 1.1 2.4 2.4 2.4h3.2c.1 0 .2-.1.2-.2v-.9c0-.1-.1-.2-.2-.2H191c-.6 0-1.2-.5-1.2-1.2V163h8.2c.6 0 1.2.5 1.2 1.2v1.3c0 .1.1.2.2.2h.9c.1 0 .2-.1.2-.2v-1.3c.1-1.4-1-2.5-2.4-2.5zm-188.6 27H0v9.5c0 1.3 1.1 2.4 2.4 2.4h3.2c.1 0 .2-.1.2-.2v-.9c0-.1-.1-.2-.2-.2H2.4c-.6 0-1.2-.5-1.2-1.2v-8.2h8.2c.6 0 1.2.5 1.2 1.2v1.3c0 .1.1.2.2.2h.9c.1 0 .2-.1.2-.2v-1.3c.1-1.3-1-2.4-2.4-2.4zm27 0H27v9.5c0 1.3 1.1 2.4 2.4 2.4h3.2c.1 0 .2-.1.2-.2v-.9c0-.1-.1-.2-.2-.2h-3.2c-.6 0-1.2-.5-1.2-1.2v-8.2h8.2c.6 0 1.2.5 1.2 1.2v1.3c0 .1.1.2.2.2h.9c.1 0 .2-.1.2-.2v-1.3c0-1.3-1.1-2.4-2.4-2.4zm26.9 0h-9.5v9.5c0 1.3 1.1 2.4 2.4 2.4h3.2c.1 0 .2-.1.2-.2v-.9c0-.1-.1-.2-.2-.2h-3.2c-.6 0-1.2-.5-1.2-1.2v-8.2h8.2c.6 0 1.2.5 1.2 1.2v1.3c0 .1.1.2.2.2h.9c.1 0 .2-.1.2-.2v-1.3c0-1.3-1-2.4-2.4-2.4zm27 0h-9.5v9.5c0 1.3 1.1 2.4 2.4 2.4h3.2c.1 0 .2-.1.2-.2v-.9c0-.1-.1-.2-.2-.2h-3.2c-.6 0-1.2-.5-1.2-1.2v-8.2h8.2c.6 0 1.2.5 1.2 1.2v1.3c0 .1.1.2.2.2h.9c.1 0 .2-.1.2-.2v-1.3c0-1.3-1.1-2.4-2.4-2.4zm26.9 0h-9.5v9.5c0 1.3 1.1 2.4 2.4 2.4h3.2c.1 0 .2-.1.2-.2v-.9c0-.1-.1-.2-.2-.2h-3.2c-.6 0-1.2-.5-1.2-1.2v-8.2h8.2c.6 0 1.2.5 1.2 1.2v1.3c0 .1.1.2.2.2h.9c.1 0 .2-.1.2-.2v-1.3c0-1.3-1.1-2.4-2.4-2.4zm26.9 0h-9.5v9.5c0 1.3 1.1 2.4 2.4 2.4h3.2c.1 0 .2-.1.2-.2v-.9c0-.1-.1-.2-.2-.2h-3.2c-.6 0-1.2-.5-1.2-1.2v-8.2h8.2c.6 0 1.2.5 1.2 1.2v1.3c0 .1.1.2.2.2h.9c.1 0 .2-.1.2-.2v-1.3c.1-1.3-1-2.4-2.4-2.4zm27 0h-9.5v9.5c0 1.3 1.1 2.4 2.4 2.4h3.2c.1 0 .2-.1.2-.2v-.9c0-.1-.1-.2-.2-.2h-3.2c-.6 0-1.2-.5-1.2-1.2v-8.2h8.2c.6 0 1.2.5 1.2 1.2v1.3c0 .1.1.2.2.2h.9c.1 0 .2-.1.2-.2v-1.3c0-1.3-1.1-2.4-2.4-2.4zm26.9 0h-9.5v9.5c0 1.3 1.1 2.4 2.4 2.4h3.2c.1 0 .2-.1.2-.2v-.9c0-.1-.1-.2-.2-.2H191c-.6 0-1.2-.5-1.2-1.2v-8.2h8.2c.6 0 1.2.5 1.2 1.2v1.3c0 .1.1.2.2.2h.9c.1 0 .2-.1.2-.2v-1.3c.1-1.3-1-2.4-2.4-2.4z"/></g></svg>