<svg xmlns="http://www.w3.org/2000/svg" width="201" height="201"  fill="#282f49" xmlns:v="https://vecta.io/nano"><rect width="12" height="2" rx="1" transform="matrix(0 1 -1 0 7 0)"/><rect width="12" height="2" rx="1" transform="matrix(0 1 -1 0 7 108)"/><rect width="12" height="2" rx="1" transform="matrix(0 1 -1 0 7 54)"/><rect width="12" height="2" rx="1" transform="matrix(0 1 -1 0 7 162)"/><rect width="12" height="2" rx="1" transform="matrix(0 1 -1 0 7 27)"/><rect width="12" height="2" rx="1" transform="matrix(0 1 -1 0 7 135)"/><rect width="12" height="2" rx="1" transform="matrix(0 1 -1 0 7 81)"/><rect width="12" height="2" rx="1" transform="matrix(0 1 -1 0 7 189)"/><rect width="12" height="2" rx="1" transform="matrix(0 1 -1 0 115 0)"/><rect width="12" height="2" rx="1" transform="matrix(0 1 -1 0 115 108)"/><rect width="12" height="2" rx="1" transform="matrix(0 1 -1 0 115 54)"/><rect width="12" height="2" rx="1" transform="matrix(0 1 -1 0 115 162)"/><rect width="12" height="2" rx="1" transform="matrix(0 1 -1 0 115 27)"/><rect width="12" height="2" rx="1" transform="matrix(0 1 -1 0 115 135)"/><rect width="12" height="2" rx="1" transform="matrix(0 1 -1 0 115 81)"/><rect width="12" height="2" rx="1" transform="matrix(0 1 -1 0 115 189)"/><rect width="12" height="2" rx="1" transform="matrix(0 1 -1 0 61 0)"/><rect width="12" height="2" rx="1" transform="matrix(0 1 -1 0 61 108)"/><rect width="12" height="2" rx="1" transform="matrix(0 1 -1 0 61 54)"/><rect width="12" height="2" rx="1" transform="matrix(0 1 -1 0 61 162)"/><rect width="12" height="2" rx="1" transform="matrix(0 1 -1 0 61 27)"/><rect width="12" height="2" rx="1" transform="matrix(0 1 -1 0 61 135)"/><rect width="12" height="2" rx="1" transform="matrix(0 1 -1 0 61 81)"/><rect width="12" height="2" rx="1" transform="matrix(0 1 -1 0 61 189)"/><rect width="12" height="2" rx="1" transform="matrix(0 1 -1 0 169 0)"/><rect width="12" height="2" rx="1" transform="matrix(0 1 -1 0 169 108)"/><rect width="12" height="2" rx="1" transform="matrix(0 1 -1 0 169 54)"/><rect width="12" height="2" rx="1" transform="matrix(0 1 -1 0 169 162)"/><rect width="12" height="2" rx="1" transform="matrix(0 1 -1 0 169 27)"/><rect width="12" height="2" rx="1" transform="matrix(0 1 -1 0 169 135)"/><rect width="12" height="2" rx="1" transform="matrix(0 1 -1 0 169 81)"/><rect width="12" height="2" rx="1" transform="matrix(0 1 -1 0 169 189)"/><rect width="12" height="2" rx="1" transform="matrix(0 1 -1 0 34 0)"/><rect width="12" height="2" rx="1" transform="matrix(0 1 -1 0 34 108)"/><rect width="12" height="2" rx="1" transform="matrix(0 1 -1 0 34 54)"/><rect width="12" height="2" rx="1" transform="matrix(0 1 -1 0 34 162)"/><rect width="12" height="2" rx="1" transform="matrix(0 1 -1 0 34 27)"/><rect width="12" height="2" rx="1" transform="matrix(0 1 -1 0 34 135)"/><rect width="12" height="2" rx="1" transform="matrix(0 1 -1 0 34 81)"/><rect width="12" height="2" rx="1" transform="matrix(0 1 -1 0 34 189)"/><rect width="12" height="2" rx="1" transform="matrix(0 1 -1 0 142 0)"/><rect width="12" height="2" rx="1" transform="matrix(0 1 -1 0 142 108)"/><rect width="12" height="2" rx="1" transform="matrix(0 1 -1 0 142 54)"/><rect width="12" height="2" rx="1" transform="matrix(0 1 -1 0 142 162)"/><rect width="12" height="2" rx="1" transform="matrix(0 1 -1 0 142 27)"/><rect width="12" height="2" rx="1" transform="matrix(0 1 -1 0 142 135)"/><rect width="12" height="2" rx="1" transform="matrix(0 1 -1 0 142 81)"/><rect width="12" height="2" rx="1" transform="matrix(0 1 -1 0 142 189)"/><rect width="12" height="2" rx="1" transform="matrix(0 1 -1 0 88 0)"/><rect width="12" height="2" rx="1" transform="matrix(0 1 -1 0 88 108)"/><rect width="12" height="2" rx="1" transform="matrix(0 1 -1 0 88 54)"/><rect width="12" height="2" rx="1" transform="matrix(0 1 -1 0 88 162)"/><rect width="12" height="2" rx="1" transform="matrix(0 1 -1 0 88 27)"/><rect width="12" height="2" rx="1" transform="matrix(0 1 -1 0 88 135)"/><rect width="12" height="2" rx="1" transform="matrix(0 1 -1 0 88 81)"/><rect width="12" height="2" rx="1" transform="matrix(0 1 -1 0 88 189)"/><rect width="12" height="2" rx="1" transform="matrix(0 1 -1 0 196 0)"/><rect width="12" height="2" rx="1" transform="matrix(0 1 -1 0 196 108)"/><rect width="12" height="2" rx="1" transform="matrix(0 1 -1 0 196 54)"/><rect width="12" height="2" rx="1" transform="matrix(0 1 -1 0 196 162)"/><rect width="12" height="2" rx="1" transform="matrix(0 1 -1 0 196 27)"/><rect width="12" height="2" rx="1" transform="matrix(0 1 -1 0 196 135)"/><rect width="12" height="2" rx="1" transform="matrix(0 1 -1 0 196 81)"/><rect width="12" height="2" rx="1" transform="matrix(0 1 -1 0 196 189)"/><rect width="12" height="2" rx="1" transform="matrix(-1 0 0 -1 12 7)"/><rect width="12" height="2" rx="1" transform="matrix(-1 0 0 -1 12 115)"/><rect width="12" height="2" rx="1" transform="matrix(-1 0 0 -1 12 61)"/><rect width="12" height="2" rx="1" transform="matrix(-1 0 0 -1 12 169)"/><rect width="12" height="2" rx="1" transform="matrix(-1 0 0 -1 12 34)"/><rect width="12" height="2" rx="1" transform="matrix(-1 0 0 -1 12 142)"/><rect width="12" height="2" rx="1" transform="matrix(-1 0 0 -1 12 88)"/><rect width="12" height="2" rx="1" transform="matrix(-1 0 0 -1 12 196)"/><rect width="12" height="2" rx="1" transform="matrix(-1 0 0 -1 120 7)"/><rect width="12" height="2" rx="1" transform="matrix(-1 0 0 -1 120 115)"/><rect width="12" height="2" rx="1" transform="matrix(-1 0 0 -1 120 61)"/><rect width="12" height="2" rx="1" transform="matrix(-1 0 0 -1 120 169)"/><rect width="12" height="2" rx="1" transform="matrix(-1 0 0 -1 120 34)"/><rect width="12" height="2" rx="1" transform="matrix(-1 0 0 -1 120 142)"/><rect width="12" height="2" rx="1" transform="matrix(-1 0 0 -1 120 88)"/><rect width="12" height="2" rx="1" transform="matrix(-1 0 0 -1 120 196)"/><rect width="12" height="2" rx="1" transform="matrix(-1 0 0 -1 66 7)"/><rect width="12" height="2" rx="1" transform="matrix(-1 0 0 -1 66 115)"/><rect width="12" height="2" rx="1" transform="matrix(-1 0 0 -1 66 61)"/><rect width="12" height="2" rx="1" transform="matrix(-1 0 0 -1 66 169)"/><rect width="12" height="2" rx="1" transform="matrix(-1 0 0 -1 66 34)"/><rect width="12" height="2" rx="1" transform="matrix(-1 0 0 -1 66 142)"/><rect width="12" height="2" rx="1" transform="matrix(-1 0 0 -1 66 88)"/><rect width="12" height="2" rx="1" transform="matrix(-1 0 0 -1 66 196)"/><rect width="12" height="2" rx="1" transform="matrix(-1 0 0 -1 174 7)"/><rect width="12" height="2" rx="1" transform="matrix(-1 0 0 -1 174 115)"/><rect width="12" height="2" rx="1" transform="matrix(-1 0 0 -1 174 61)"/><rect width="12" height="2" rx="1" transform="matrix(-1 0 0 -1 174 169)"/><rect width="12" height="2" rx="1" transform="matrix(-1 0 0 -1 174 34)"/><rect width="12" height="2" rx="1" transform="matrix(-1 0 0 -1 174 142)"/><rect width="12" height="2" rx="1" transform="matrix(-1 0 0 -1 174 88)"/><rect width="12" height="2" rx="1" transform="matrix(-1 0 0 -1 174 196)"/><rect width="12" height="2" rx="1" transform="matrix(-1 0 0 -1 39 7)"/><rect width="12" height="2" rx="1" transform="matrix(-1 0 0 -1 39 115)"/><rect width="12" height="2" rx="1" transform="matrix(-1 0 0 -1 39 61)"/><rect width="12" height="2" rx="1" transform="matrix(-1 0 0 -1 39 169)"/><rect width="12" height="2" rx="1" transform="matrix(-1 0 0 -1 39 34)"/><rect width="12" height="2" rx="1" transform="matrix(-1 0 0 -1 39 142)"/><rect width="12" height="2" rx="1" transform="matrix(-1 0 0 -1 39 88)"/><rect width="12" height="2" rx="1" transform="matrix(-1 0 0 -1 39 196)"/><rect width="12" height="2" rx="1" transform="matrix(-1 0 0 -1 147 7)"/><rect width="12" height="2" rx="1" transform="matrix(-1 0 0 -1 147 115)"/><rect width="12" height="2" rx="1" transform="matrix(-1 0 0 -1 147 61)"/><rect width="12" height="2" rx="1" transform="matrix(-1 0 0 -1 147 169)"/><rect width="12" height="2" rx="1" transform="matrix(-1 0 0 -1 147 34)"/><rect width="12" height="2" rx="1" transform="matrix(-1 0 0 -1 147 142)"/><rect width="12" height="2" rx="1" transform="matrix(-1 0 0 -1 147 88)"/><rect width="12" height="2" rx="1" transform="matrix(-1 0 0 -1 147 196)"/><rect width="12" height="2" rx="1" transform="matrix(-1 0 0 -1 93 7)"/><rect width="12" height="2" rx="1" transform="matrix(-1 0 0 -1 93 115)"/><rect width="12" height="2" rx="1" transform="matrix(-1 0 0 -1 93 61)"/><rect width="12" height="2" rx="1" transform="matrix(-1 0 0 -1 93 169)"/><rect width="12" height="2" rx="1" transform="matrix(-1 0 0 -1 93 34)"/><rect width="12" height="2" rx="1" transform="matrix(-1 0 0 -1 93 142)"/><rect width="12" height="2" rx="1" transform="matrix(-1 0 0 -1 93 88)"/><rect width="12" height="2" rx="1" transform="matrix(-1 0 0 -1 93 196)"/><rect width="12" height="2" rx="1" transform="matrix(-1 0 0 -1 201 7)"/><rect width="12" height="2" rx="1" transform="matrix(-1 0 0 -1 201 115)"/><rect width="12" height="2" rx="1" transform="matrix(-1 0 0 -1 201 61)"/><rect width="12" height="2" rx="1" transform="matrix(-1 0 0 -1 201 169)"/><rect width="12" height="2" rx="1" transform="matrix(-1 0 0 -1 201 34)"/><rect width="12" height="2" rx="1" transform="matrix(-1 0 0 -1 201 142)"/><rect width="12" height="2" rx="1" transform="matrix(-1 0 0 -1 201 88)"/><rect width="12" height="2" rx="1" transform="matrix(-1 0 0 -1 201 196)"/></svg>