<svg xmlns="http://www.w3.org/2000/svg" xmlns:xlink="http://www.w3.org/1999/xlink" viewBox="0 0 201 201" xmlns:v="https://vecta.io/nano"><style><![CDATA[.Bv{fill:#009fe3}]]></style><defs><path id="A" d="M0 0h201v201H0z"/></defs><clipPath id="B"><use xlink:href="#A"/></clipPath><g clip-path="url(#B)"><defs><path id="C" d="M0 0h0 12v30H0z"/></defs><clipPath id="D"><use xlink:href="#C"/></clipPath><g clip-path="url(#D)"><defs><path id="E" d="M0 0h0 12v12H0z"/></defs><clipPath id="F"><use xlink:href="#E"/></clipPath><path d="M9.5 0H0v9.5C0 10.9 1.1 12 2.4 12h3.2c.1 0 .2-.1.2-.2v-.9c0-.1-.1-.2-.2-.2H2.4c-.6 0-1.2-.5-1.2-1.2V1.3h8.2c.6 0 1.2.5 1.2 1.2v1.3c0 .1.1.2.2.2h.9c.1 0 .2-.1.2-.2V2.4C12 1.1 10.9 0 9.5 0z" clip-path="url(#F)" class="Bv"/><defs><path id="G" d="M0 30h0 12V18H0z"/></defs><clipPath id="H"><use xlink:href="#G"/></clipPath><path d="M9.5 30H0v-9.5C0 19.1 1.1 18 2.4 18h3.2c.1 0 .2.1.2.2v.9c0 .1-.1.2-.2.2H2.4c-.6 0-1.2.5-1.2 1.2v8.2h8.2c.6 0 1.2-.5 1.2-1.2v-1.3c0-.1.1-.2.2-.2h.9c.1 0 .2.1.2.2v1.3c.1 1.4-1 2.5-2.4 2.5z" clip-path="url(#H)" class="Bv"/></g><defs><path id="I" d="M28.9 0h0-12v30h12z"/></defs><clipPath id="J"><use xlink:href="#I"/></clipPath><g clip-path="url(#J)"><defs><path id="K" d="M28.9 0h0-12v12h12z"/></defs><clipPath id="L"><use xlink:href="#K"/></clipPath><path d="M19.4 0h9.5v9.5c0 1.3-1.1 2.4-2.4 2.4h-3.2c-.1 0-.2-.1-.2-.2v-.9c0-.1.1-.2.2-.2h3.2c.6 0 1.2-.5 1.2-1.2V1.3h-8.2c-.6 0-1.2.5-1.2 1.2v1.3c0 .1-.1.2-.2.2h-.9c-.1 0-.2-.1-.2-.2V2.4C16.9 1.1 18 0 19.4 0z" clip-path="url(#L)" class="Bv"/><defs><path id="M" d="M28.9 30h0-12V18h12z"/></defs><clipPath id="N"><use xlink:href="#M"/></clipPath><path d="M19.4 30h9.5v-9.5c0-1.3-1.1-2.4-2.4-2.4h-3.2c-.1 0-.2.1-.2.2v.9c0 .1.1.2.2.2h3.2c.6 0 1.2.5 1.2 1.2v8.2h-8.2c-.6 0-1.2-.5-1.2-1.2v-1.3c0-.1-.1-.2-.2-.2h-.9c-.1 0-.2.1-.2.2v1.3c-.1 1.3 1 2.4 2.4 2.4z" clip-path="url(#N)" class="Bv"/></g><defs><path id="O" d="M43 0h0 12v30H43z"/></defs><clipPath id="P"><use xlink:href="#O"/></clipPath><g clip-path="url(#P)"><defs><path id="Q" d="M43 0h0 12v12H43z"/></defs><clipPath id="R"><use xlink:href="#Q"/></clipPath><path d="M52.5 0H43v9.5c0 1.3 1.1 2.4 2.4 2.4h3.2c.1 0 .2-.1.2-.2v-.9c0-.1-.1-.2-.2-.2h-3.2c-.6 0-1.2-.5-1.2-1.2V1.3h8.2c.6 0 1.2.5 1.2 1.2v1.3c0 .1.1.2.2.2h.9c.1 0 .2-.1.2-.2V2.4c.1-1.3-1-2.4-2.4-2.4z" clip-path="url(#R)" class="Bv"/><defs><path id="S" d="M43 30h0 12V18H43z"/></defs><clipPath id="T"><use xlink:href="#S"/></clipPath><path d="M52.5 30H43v-9.5c0-1.3 1.1-2.4 2.4-2.4h3.2c.1 0 .2.1.2.2v.9c0 .1-.1.2-.2.2h-3.2c-.6 0-1.2.5-1.2 1.2v8.2h8.2c.6 0 1.2-.5 1.2-1.2v-1.3c0-.1.1-.2.2-.2h.9c.1 0 .2.1.2.2v1.3c.1 1.3-1 2.4-2.4 2.4z" clip-path="url(#T)" class="Bv"/></g><defs><path id="U" d="M71.9 0h0-12v30h12z"/></defs><clipPath id="V"><use xlink:href="#U"/></clipPath><g clip-path="url(#V)"><defs><path id="W" d="M71.9 0h0-12v12h12z"/></defs><clipPath id="X"><use xlink:href="#W"/></clipPath><path d="M62.4 0h9.5v9.5c0 1.3-1.1 2.4-2.4 2.4h-3.2c-.1 0-.2-.1-.2-.2v-.9c0-.1.1-.2.2-.2h3.2c.6 0 1.2-.5 1.2-1.2V1.3h-8.2c-.6 0-1.2.5-1.2 1.2v1.3c0 .1-.1.2-.2.2h-.9c-.1 0-.2-.1-.2-.2V2.4C59.9 1.1 61 0 62.4 0z" clip-path="url(#X)" class="Bv"/><defs><path id="Y" d="M71.9 30h0-12V18h12z"/></defs><clipPath id="Z"><use xlink:href="#Y"/></clipPath><path d="M62.4 30h9.5v-9.5c0-1.3-1.1-2.4-2.4-2.4h-3.2c-.1 0-.2.1-.2.2v.9c0 .1.1.2.2.2h3.2c.6 0 1.2.5 1.2 1.2v8.2h-8.2c-.6 0-1.2-.5-1.2-1.2v-1.3c0-.1-.1-.2-.2-.2h-.9c-.1 0-.2.1-.2.2v1.3c-.1 1.3 1 2.4 2.4 2.4z" clip-path="url(#Z)" class="Bv"/></g><defs><path id="a" d="M86 0h0 12v30H86z"/></defs><clipPath id="b"><use xlink:href="#a"/></clipPath><g clip-path="url(#b)"><defs><path id="c" d="M86 0h0 12v12H86z"/></defs><clipPath id="d"><use xlink:href="#c"/></clipPath><path d="M95.5 0H86v9.5c0 1.3 1.1 2.4 2.4 2.4h3.2c.1 0 .2-.1.2-.2v-.9c0-.1-.1-.2-.2-.2h-3.2c-.6 0-1.2-.5-1.2-1.2V1.3h8.2c.6 0 1.2.5 1.2 1.2v1.3c0 .1.1.2.2.2h.9c.1 0 .2-.1.2-.2V2.4c.1-1.3-1-2.4-2.4-2.4z" clip-path="url(#d)" class="Bv"/><defs><path id="e" d="M86 30h0 12V18H86z"/></defs><clipPath id="f"><use xlink:href="#e"/></clipPath><path d="M95.5 30H86v-9.5c0-1.3 1.1-2.4 2.4-2.4h3.2c.1 0 .2.1.2.2v.9c0 .1-.1.2-.2.2h-3.2c-.6 0-1.2.5-1.2 1.2v8.2h8.2c.6 0 1.2-.5 1.2-1.2v-1.3c0-.1.1-.2.2-.2h.9c.1 0 .2.1.2.2v1.3c.1 1.3-1 2.4-2.4 2.4z" clip-path="url(#f)" class="Bv"/></g><defs><path id="g" d="M114.9 0h0-12v30h12z"/></defs><clipPath id="h"><use xlink:href="#g"/></clipPath><g clip-path="url(#h)"><defs><path id="i" d="M114.9 0h0-12v12h12z"/></defs><clipPath id="j"><use xlink:href="#i"/></clipPath><path d="M105.4 0h9.5v9.5c0 1.3-1.1 2.4-2.4 2.4h-3.2c-.1 0-.2-.1-.2-.2v-.9c0-.1.1-.2.2-.2h3.2c.6 0 1.2-.5 1.2-1.2V1.3h-8.2c-.6 0-1.2.5-1.2 1.2v1.3c0 .1-.1.2-.2.2h-.9c-.1 0-.2-.1-.2-.2V2.4c-.1-1.3 1-2.4 2.4-2.4z" clip-path="url(#j)" class="Bv"/><defs><path id="k" d="M114.9 30h0-12V18h12z"/></defs><clipPath id="l"><use xlink:href="#k"/></clipPath><path d="M105.4 30h9.5v-9.5c0-1.3-1.1-2.4-2.4-2.4h-3.2c-.1 0-.2.1-.2.2v.9c0 .1.1.2.2.2h3.2c.6 0 1.2.5 1.2 1.2v8.2h-8.2c-.6 0-1.2-.5-1.2-1.2v-1.3c0-.1-.1-.2-.2-.2h-.9c-.1 0-.2.1-.2.2v1.3c-.1 1.3 1 2.4 2.4 2.4z" clip-path="url(#l)" class="Bv"/></g><defs><path id="m" d="M129 0h0 12v30h-12z"/></defs><clipPath id="n"><use xlink:href="#m"/></clipPath><g clip-path="url(#n)"><defs><path id="o" d="M129 0h0 12v12h-12z"/></defs><clipPath id="p"><use xlink:href="#o"/></clipPath><path d="M138.5 0H129v9.5c0 1.3 1.1 2.4 2.4 2.4h3.2c.1 0 .2-.1.2-.2v-.9c0-.1-.1-.2-.2-.2h-3.2c-.6 0-1.2-.5-1.2-1.2V1.3h8.2c.6 0 1.2.5 1.2 1.2v1.3c0 .1.1.2.2.2h.9c.1 0 .2-.1.2-.2V2.4c.1-1.3-1-2.4-2.4-2.4z" clip-path="url(#p)" class="Bv"/><defs><path id="q" d="M129 30h0 12V18h-12z"/></defs><clipPath id="r"><use xlink:href="#q"/></clipPath><path d="M138.5 30H129v-9.5c0-1.3 1.1-2.4 2.4-2.4h3.2c.1 0 .2.1.2.2v.9c0 .1-.1.2-.2.2h-3.2c-.6 0-1.2.5-1.2 1.2v8.2h8.2c.6 0 1.2-.5 1.2-1.2v-1.3c0-.1.1-.2.2-.2h.9c.1 0 .2.1.2.2v1.3c.1 1.3-1 2.4-2.4 2.4z" clip-path="url(#r)" class="Bv"/></g><defs><path id="s" d="M157.9 0h0-12v30h12z"/></defs><clipPath id="t"><use xlink:href="#s"/></clipPath><g clip-path="url(#t)"><defs><path id="u" d="M157.9 0h0-12v12h12z"/></defs><clipPath id="v"><use xlink:href="#u"/></clipPath><path d="M148.4 0h9.5v9.5c0 1.3-1.1 2.4-2.4 2.4h-3.2c-.1 0-.2-.1-.2-.2v-.9c0-.1.1-.2.2-.2h3.2c.6 0 1.2-.5 1.2-1.2V1.3h-8.2c-.6 0-1.2.5-1.2 1.2v1.3c0 .1-.1.2-.2.2h-.9c-.1 0-.2-.1-.2-.2V2.4c-.1-1.3 1-2.4 2.4-2.4z" clip-path="url(#v)" class="Bv"/><defs><path id="w" d="M157.9 30h0-12V18h12z"/></defs><clipPath id="x"><use xlink:href="#w"/></clipPath><path d="M148.4 30h9.5v-9.5c0-1.3-1.1-2.4-2.4-2.4h-3.2c-.1 0-.2.1-.2.2v.9c0 .1.1.2.2.2h3.2c.6 0 1.2.5 1.2 1.2v8.2h-8.2c-.6 0-1.2-.5-1.2-1.2v-1.3c0-.1-.1-.2-.2-.2h-.9c-.1 0-.2.1-.2.2v1.3c-.1 1.3 1 2.4 2.4 2.4z" clip-path="url(#x)" class="Bv"/></g><defs><path id="y" d="M172 0h0 12v30h-12z"/></defs><clipPath id="z"><use xlink:href="#y"/></clipPath><g clip-path="url(#z)"><defs><path id="AA" d="M172 0h0 12v12h-12z"/></defs><clipPath id="AB"><use xlink:href="#AA"/></clipPath><path d="M181.5 0H172v9.5c0 1.3 1.1 2.4 2.4 2.4h3.2c.1 0 .2-.1.2-.2v-.9c0-.1-.1-.2-.2-.2h-3.2c-.6 0-1.2-.5-1.2-1.2V1.3h8.2c.6 0 1.2.5 1.2 1.2v1.3c0 .1.1.2.2.2h.9c.1 0 .2-.1.2-.2V2.4c.1-1.3-1-2.4-2.4-2.4z" clip-path="url(#AB)" class="Bv"/><defs><path id="AC" d="M172 30h0 12V18h-12z"/></defs><clipPath id="AD"><use xlink:href="#AC"/></clipPath><path d="M181.5 30H172v-9.5c0-1.3 1.1-2.4 2.4-2.4h3.2c.1 0 .2.1.2.2v.9c0 .1-.1.2-.2.2h-3.2c-.6 0-1.2.5-1.2 1.2v8.2h8.2c.6 0 1.2-.5 1.2-1.2v-1.3c0-.1.1-.2.2-.2h.9c.1 0 .2.1.2.2v1.3c.1 1.3-1 2.4-2.4 2.4z" clip-path="url(#AD)" class="Bv"/></g><defs><path id="AE" d="M200.9 0h0-12v30h12z"/></defs><clipPath id="AF"><use xlink:href="#AE"/></clipPath><g clip-path="url(#AF)"><defs><path id="AG" d="M200.9 0h0-12v12h12z"/></defs><clipPath id="AH"><use xlink:href="#AG"/></clipPath><path d="M191.4 0h9.5v9.5c0 1.3-1.1 2.4-2.4 2.4h-3.2c-.1 0-.2-.1-.2-.2v-.9c0-.1.1-.2.2-.2h3.2c.6 0 1.2-.5 1.2-1.2V1.3h-8.2c-.6 0-1.2.5-1.2 1.2v1.3c0 .1-.1.2-.2.2h-.9c-.1 0-.2-.1-.2-.2V2.4c-.1-1.3 1-2.4 2.4-2.4z" clip-path="url(#AH)" class="Bv"/><defs><path id="AI" d="M200.9 30h0-12V18h12z"/></defs><clipPath id="AJ"><use xlink:href="#AI"/></clipPath><path d="M191.4 30h9.5v-9.5c0-1.3-1.1-2.4-2.4-2.4h-3.2c-.1 0-.2.1-.2.2v.9c0 .1.1.2.2.2h3.2c.6 0 1.2.5 1.2 1.2v8.2h-8.2c-.6 0-1.2-.5-1.2-1.2v-1.3c0-.1-.1-.2-.2-.2h-.9c-.1 0-.2.1-.2.2v1.3c-.1 1.3 1 2.4 2.4 2.4z" clip-path="url(#AJ)" class="Bv"/></g><defs><path id="AK" d="M0 42.8h0 12v29.9H0z"/></defs><clipPath id="AL"><use xlink:href="#AK"/></clipPath><g clip-path="url(#AL)"><defs><path id="AM" d="M0 42.8h0 12v11.9H0z"/></defs><clipPath id="AN"><use xlink:href="#AM"/></clipPath><path d="M9.5 42.8H0v9.5c0 1.3 1.1 2.4 2.4 2.4h3.2c.1 0 .2-.1.2-.2v-.9c0-.1-.1-.2-.2-.2H2.4c-.6 0-1.2-.5-1.2-1.2V44h8.2c.6 0 1.2.5 1.2 1.2v1.3c0 .1.1.2.2.2h.9c.1 0 .2-.1.2-.2v-1.3c.1-1.3-1-2.4-2.4-2.4z" clip-path="url(#AN)" class="Bv"/><defs><path id="AO" d="M0 72.7h0 12V60.8H0z"/></defs><clipPath id="AP"><use xlink:href="#AO"/></clipPath><path d="M9.5 72.7H0v-9.5c0-1.3 1.1-2.4 2.4-2.4h3.2c.1 0 .2.1.2.2v.9c0 .1-.1.1-.2.1H2.4c-.6 0-1.2.5-1.2 1.2v8.2h8.2c.6 0 1.2-.5 1.2-1.2V69c0-.1.1-.2.2-.2h.9c.1 0 .2.1.2.2v1.3c.1 1.3-1 2.4-2.4 2.4z" clip-path="url(#AP)" class="Bv"/></g><defs><path id="AQ" d="M28.9 42.8h0-12v29.9h12z"/></defs><clipPath id="AR"><use xlink:href="#AQ"/></clipPath><g clip-path="url(#AR)"><defs><path id="AS" d="M28.9 42.8h0-12v11.9h12z"/></defs><clipPath id="AT"><use xlink:href="#AS"/></clipPath><path d="M19.4 42.8h9.5v9.5c0 1.3-1.1 2.4-2.4 2.4h-3.2c-.1 0-.2-.1-.2-.2v-.9c0-.1.1-.2.2-.2h3.2c.6 0 1.2-.5 1.2-1.2V44h-8.2c-.6 0-1.2.5-1.2 1.2v1.3c0 .1-.1.2-.2.2h-.9c-.1 0-.2-.1-.2-.2v-1.3c-.1-1.3 1-2.4 2.4-2.4z" clip-path="url(#AT)" class="Bv"/><defs><path id="AU" d="M28.9 72.7h0-12V60.8h12z"/></defs><clipPath id="AV"><use xlink:href="#AU"/></clipPath><path d="M19.4 72.7h9.5v-9.5c0-1.3-1.1-2.4-2.4-2.4h-3.2c-.1 0-.2.1-.2.2v.9c0 .1.1.2.2.2h3.2c.6 0 1.2.5 1.2 1.2v8.2h-8.2c-.6 0-1.2-.5-1.2-1.2V69c0-.1-.1-.2-.2-.2h-.9c-.1 0-.2.1-.2.2v1.3c-.1 1.3 1 2.4 2.4 2.4z" clip-path="url(#AV)" class="Bv"/></g><defs><path id="AW" d="M43 42.8h0 12v29.9H43z"/></defs><clipPath id="AX"><use xlink:href="#AW"/></clipPath><g clip-path="url(#AX)"><defs><path id="AY" d="M43 42.8h0 12v11.9H43z"/></defs><clipPath id="AZ"><use xlink:href="#AY"/></clipPath><path d="M52.5 42.8H43v9.5c0 1.3 1.1 2.4 2.4 2.4h3.2c.1 0 .2-.1.2-.2v-.9c0-.1-.1-.2-.2-.2h-3.2c-.6 0-1.2-.5-1.2-1.2V44h8.2c.6 0 1.2.5 1.2 1.2v1.3c0 .1.1.2.2.2h.9c.1 0 .2-.1.2-.2v-1.3c.1-1.3-1-2.4-2.4-2.4z" clip-path="url(#AZ)" class="Bv"/><defs><path id="Aa" d="M43 72.7h0 12V60.8H43z"/></defs><clipPath id="Ab"><use xlink:href="#Aa"/></clipPath><path d="M52.5 72.7H43v-9.5c0-1.3 1.1-2.4 2.4-2.4h3.2c.1 0 .2.1.2.2v.9c0 .1-.1.2-.2.2h-3.2c-.6 0-1.2.5-1.2 1.2v8.2h8.2c.6 0 1.2-.5 1.2-1.2V69c0-.1.1-.2.2-.2h.9c.1 0 .2.1.2.2v1.3c.1 1.3-1 2.4-2.4 2.4z" clip-path="url(#Ab)" class="Bv"/></g><defs><path id="Ac" d="M71.9 42.8h0-12v29.9h12z"/></defs><clipPath id="Ad"><use xlink:href="#Ac"/></clipPath><g clip-path="url(#Ad)"><defs><path id="Ae" d="M71.9 42.8h0-12v11.9h12z"/></defs><clipPath id="Af"><use xlink:href="#Ae"/></clipPath><path d="M62.4 42.8h9.5v9.5c0 1.3-1.1 2.4-2.4 2.4h-3.2c-.1 0-.2-.1-.2-.2v-.9c0-.1.1-.2.2-.2h3.2c.6 0 1.2-.5 1.2-1.2V44h-8.2c-.6 0-1.2.5-1.2 1.2v1.3c0 .1-.1.2-.2.2h-.9c-.1 0-.2-.1-.2-.2v-1.3c-.1-1.3 1-2.4 2.4-2.4z" clip-path="url(#Af)" class="Bv"/><defs><path id="Ag" d="M71.9 72.7h0-12V60.8h12z"/></defs><clipPath id="Ah"><use xlink:href="#Ag"/></clipPath><path d="M62.4 72.7h9.5v-9.5c0-1.3-1.1-2.4-2.4-2.4h-3.2c-.1 0-.2.1-.2.2v.9c0 .1.1.2.2.2h3.2c.6 0 1.2.5 1.2 1.2v8.2h-8.2c-.6 0-1.2-.5-1.2-1.2V69c0-.1-.1-.2-.2-.2h-.9c-.1 0-.2.1-.2.2v1.3c-.1 1.3 1 2.4 2.4 2.4z" clip-path="url(#Ah)" class="Bv"/></g><defs><path id="Ai" d="M86 42.8h0 12v29.9H86z"/></defs><clipPath id="Aj"><use xlink:href="#Ai"/></clipPath><g clip-path="url(#Aj)"><defs><path id="Ak" d="M86 42.8h0 12v11.9H86z"/></defs><clipPath id="Al"><use xlink:href="#Ak"/></clipPath><path d="M95.5 42.8H86v9.5c0 1.3 1.1 2.4 2.4 2.4h3.2c.1 0 .2-.1.2-.2v-.9c0-.1-.1-.2-.2-.2h-3.2c-.6 0-1.2-.5-1.2-1.2V44h8.2c.6 0 1.2.5 1.2 1.2v1.3c0 .1.1.2.2.2h.9c.1 0 .2-.1.2-.2v-1.3c.1-1.3-1-2.4-2.4-2.4z" clip-path="url(#Al)" class="Bv"/><defs><path id="Am" d="M86 72.7h0 12V60.8H86z"/></defs><clipPath id="An"><use xlink:href="#Am"/></clipPath><path d="M95.5 72.7H86v-9.5c0-1.3 1.1-2.4 2.4-2.4h3.2c.1 0 .2.1.2.2v.9c0 .1-.1.2-.2.2h-3.2c-.6 0-1.2.5-1.2 1.2v8.2h8.2c.6 0 1.2-.5 1.2-1.2V69c0-.1.1-.2.2-.2h.9c.1 0 .2.1.2.2v1.3c.1 1.3-1 2.4-2.4 2.4z" clip-path="url(#An)" class="Bv"/></g><defs><path id="Ao" d="M114.9 42.8h0-12v29.9h12z"/></defs><clipPath id="Ap"><use xlink:href="#Ao"/></clipPath><g clip-path="url(#Ap)"><defs><path id="Aq" d="M114.9 42.8h0-12v11.9h12z"/></defs><clipPath id="Ar"><use xlink:href="#Aq"/></clipPath><path d="M105.4 42.8h9.5v9.5c0 1.3-1.1 2.4-2.4 2.4h-3.2c-.1 0-.2-.1-.2-.2v-.9c0-.1.1-.2.2-.2h3.2c.6 0 1.2-.5 1.2-1.2V44h-8.2c-.6 0-1.2.5-1.2 1.2v1.3c0 .1-.1.2-.2.2h-.9c-.1 0-.2-.1-.2-.2v-1.3c-.1-1.3 1-2.4 2.4-2.4z" clip-path="url(#Ar)" class="Bv"/><defs><path id="As" d="M114.9 72.7h0-12V60.8h12z"/></defs><clipPath id="At"><use xlink:href="#As"/></clipPath><path d="M105.4 72.7h9.5v-9.5c0-1.3-1.1-2.4-2.4-2.4h-3.2c-.1 0-.2.1-.2.2v.9c0 .1.1.2.2.2h3.2c.6 0 1.2.5 1.2 1.2v8.2h-8.2c-.6 0-1.2-.5-1.2-1.2V69c0-.1-.1-.2-.2-.2h-.9c-.1 0-.2.1-.2.2v1.3c-.1 1.3 1 2.4 2.4 2.4z" clip-path="url(#At)" class="Bv"/></g><defs><path id="Au" d="M129 42.8h0 12v29.9h-12z"/></defs><clipPath id="Av"><use xlink:href="#Au"/></clipPath><g clip-path="url(#Av)"><defs><path id="Aw" d="M129 42.8h0 12v11.9h-12z"/></defs><clipPath id="Ax"><use xlink:href="#Aw"/></clipPath><path d="M138.5 42.8H129v9.5c0 1.3 1.1 2.4 2.4 2.4h3.2c.1 0 .2-.1.2-.2v-.9c0-.1-.1-.2-.2-.2h-3.2c-.6 0-1.2-.5-1.2-1.2V44h8.2c.6 0 1.2.5 1.2 1.2v1.3c0 .1.1.2.2.2h.9c.1 0 .2-.1.2-.2v-1.3c.1-1.3-1-2.4-2.4-2.4z" clip-path="url(#Ax)" class="Bv"/><defs><path id="Ay" d="M129 72.7h0 12V60.8h-12z"/></defs><clipPath id="Az"><use xlink:href="#Ay"/></clipPath><path d="M138.5 72.7H129v-9.5c0-1.3 1.1-2.4 2.4-2.4h3.2c.1 0 .2.1.2.2v.9c0 .1-.1.2-.2.2h-3.2c-.6 0-1.2.5-1.2 1.2v8.2h8.2c.6 0 1.2-.5 1.2-1.2V69c0-.1.1-.2.2-.2h.9c.1 0 .2.1.2.2v1.3c.1 1.3-1 2.4-2.4 2.4z" clip-path="url(#Az)" class="Bv"/></g><defs><path id="BA" d="M157.9 42.8h0-12v29.9h12z"/></defs><clipPath id="BB"><use xlink:href="#BA"/></clipPath><g clip-path="url(#BB)"><defs><path id="BC" d="M157.9 42.8h0-12v11.9h12z"/></defs><clipPath id="BD"><use xlink:href="#BC"/></clipPath><path d="M148.4 42.8h9.5v9.5c0 1.3-1.1 2.4-2.4 2.4h-3.2c-.1 0-.2-.1-.2-.2v-.9c0-.1.1-.2.2-.2h3.2c.6 0 1.2-.5 1.2-1.2V44h-8.2c-.6 0-1.2.5-1.2 1.2v1.3c0 .1-.1.2-.2.2h-.9c-.1 0-.2-.1-.2-.2v-1.3c-.1-1.3 1-2.4 2.4-2.4z" clip-path="url(#BD)" class="Bv"/><defs><path id="BE" d="M157.9 72.7h0-12V60.8h12z"/></defs><clipPath id="BF"><use xlink:href="#BE"/></clipPath><path d="M148.4 72.7h9.5v-9.5c0-1.3-1.1-2.4-2.4-2.4h-3.2c-.1 0-.2.1-.2.2v.9c0 .1.1.2.2.2h3.2c.6 0 1.2.5 1.2 1.2v8.2h-8.2c-.6 0-1.2-.5-1.2-1.2V69c0-.1-.1-.2-.2-.2h-.9c-.1 0-.2.1-.2.2v1.3c-.1 1.3 1 2.4 2.4 2.4z" clip-path="url(#BF)" class="Bv"/></g><defs><path id="BG" d="M172 42.8h0 12v29.9h-12z"/></defs><clipPath id="BH"><use xlink:href="#BG"/></clipPath><g clip-path="url(#BH)"><defs><path id="BI" d="M172 42.8h0 12v11.9h-12z"/></defs><clipPath id="BJ"><use xlink:href="#BI"/></clipPath><path d="M181.5 42.8H172v9.5c0 1.3 1.1 2.4 2.4 2.4h3.2c.1 0 .2-.1.2-.2v-.9c0-.1-.1-.2-.2-.2h-3.2c-.6 0-1.2-.5-1.2-1.2V44h8.2c.6 0 1.2.5 1.2 1.2v1.3c0 .1.1.2.2.2h.9c.1 0 .2-.1.2-.2v-1.3c.1-1.3-1-2.4-2.4-2.4z" clip-path="url(#BJ)" class="Bv"/><defs><path id="BK" d="M172 72.7h0 12V60.8h-12z"/></defs><clipPath id="BL"><use xlink:href="#BK"/></clipPath><path d="M181.5 72.7H172v-9.5c0-1.3 1.1-2.4 2.4-2.4h3.2c.1 0 .2.1.2.2v.9c0 .1-.1.2-.2.2h-3.2c-.6 0-1.2.5-1.2 1.2v8.2h8.2c.6 0 1.2-.5 1.2-1.2V69c0-.1.1-.2.2-.2h.9c.1 0 .2.1.2.2v1.3c.1 1.3-1 2.4-2.4 2.4z" clip-path="url(#BL)" class="Bv"/></g><defs><path id="BM" d="M200.9 42.8h0-12v29.9h12z"/></defs><clipPath id="BN"><use xlink:href="#BM"/></clipPath><g clip-path="url(#BN)"><defs><path id="BO" d="M200.9 42.8h0-12v11.9h12z"/></defs><clipPath id="BP"><use xlink:href="#BO"/></clipPath><path d="M191.4 42.8h9.5v9.5c0 1.3-1.1 2.4-2.4 2.4h-3.2c-.1 0-.2-.1-.2-.2v-.9c0-.1.1-.2.2-.2h3.2c.6 0 1.2-.5 1.2-1.2V44h-8.2c-.6 0-1.2.5-1.2 1.2v1.3c0 .1-.1.2-.2.2h-.9c-.1 0-.2-.1-.2-.2v-1.3c-.1-1.3 1-2.4 2.4-2.4z" clip-path="url(#BP)" class="Bv"/><defs><path id="BQ" d="M200.9 72.7h0-12V60.8h12z"/></defs><clipPath id="BR"><use xlink:href="#BQ"/></clipPath><path d="M191.4 72.7h9.5v-9.5c0-1.3-1.1-2.4-2.4-2.4h-3.2c-.1 0-.2.1-.2.2v.9c0 .1.1.2.2.2h3.2c.6 0 1.2.5 1.2 1.2v8.2h-8.2c-.6 0-1.2-.5-1.2-1.2V69c0-.1-.1-.2-.2-.2h-.9c-.1 0-.2.1-.2.2v1.3c-.1 1.3 1 2.4 2.4 2.4z" clip-path="url(#BR)" class="Bv"/></g><defs><path id="BS" d="M0 85.5h0 12v30H0z"/></defs><clipPath id="BT"><use xlink:href="#BS"/></clipPath><g clip-path="url(#BT)"><defs><path id="BU" d="M0 85.5h0 12v12H0z"/></defs><clipPath id="BV"><use xlink:href="#BU"/></clipPath><path d="M9.5 85.5H0V95c0 1.3 1.1 2.4 2.4 2.4h3.2c.1 0 .2-.1.2-.2v-.9c0-.1-.1-.2-.2-.2H2.4c-.6 0-1.2-.5-1.2-1.2v-8.2h8.2c.6 0 1.2.5 1.2 1.2v1.3c0 .1.1.2.2.2h.9c.1 0 .2-.1.2-.2V88c.1-1.4-1-2.5-2.4-2.5z" clip-path="url(#BV)" class="Bv"/><defs><path id="BW" d="M0 115.5h0 12v-12H0z"/></defs><clipPath id="BX"><use xlink:href="#BW"/></clipPath><path d="M9.5 115.5H0V106c0-1.3 1.1-2.4 2.4-2.4h3.2c.1 0 .2.1.2.2v.9c0 .1-.1.2-.2.2H2.4c-.6 0-1.2.5-1.2 1.2v8.2h8.2c.6 0 1.2-.5 1.2-1.2v-1.3c0-.1.1-.2.2-.2h.9c.1 0 .2.1.2.2v1.3c.1 1.3-1 2.4-2.4 2.4z" clip-path="url(#BX)" class="Bv"/></g><defs><path id="BY" d="M28.9 85.5h0-12v30h12z"/></defs><clipPath id="BZ"><use xlink:href="#BY"/></clipPath><g clip-path="url(#BZ)"><defs><path id="Ba" d="M28.9 85.5h0-12v12h12z"/></defs><clipPath id="Bb"><use xlink:href="#Ba"/></clipPath><path d="M19.4 85.5h9.5V95c0 1.3-1.1 2.4-2.4 2.4h-3.2c-.1 0-.2-.1-.2-.2v-.9c0-.1.1-.2.2-.2h3.2c.6 0 1.2-.5 1.2-1.2v-8.2h-8.2c-.6 0-1.2.5-1.2 1.2v1.3c0 .1-.1.2-.2.2h-.9c-.1 0-.2-.1-.2-.2V88c-.1-1.4 1-2.5 2.4-2.5z" clip-path="url(#Bb)" class="Bv"/><defs><path id="Bc" d="M28.9 115.5h0-12v-12h12z"/></defs><clipPath id="Bd"><use xlink:href="#Bc"/></clipPath><path d="M19.4 115.5h9.5V106c0-1.3-1.1-2.4-2.4-2.4h-3.2c-.1 0-.2.1-.2.2v.9c0 .1.1.2.2.2h3.2c.6 0 1.2.5 1.2 1.2v8.2h-8.2c-.6 0-1.2-.5-1.2-1.2v-1.3c0-.1-.1-.2-.2-.2h-.9c-.1 0-.2.1-.2.2v1.3c-.1 1.3 1 2.4 2.4 2.4z" clip-path="url(#Bd)" class="Bv"/></g><defs><path id="Be" d="M43 85.5h0 12v30H43z"/></defs><clipPath id="Bf"><use xlink:href="#Be"/></clipPath><g clip-path="url(#Bf)"><defs><path id="Bg" d="M43 85.5h0 12v12H43z"/></defs><clipPath id="Bh"><use xlink:href="#Bg"/></clipPath><path d="M52.5 85.5H43V95c0 1.3 1.1 2.4 2.4 2.4h3.2c.1 0 .2-.1.2-.2v-.9c0-.1-.1-.2-.2-.2h-3.2c-.6 0-1.2-.5-1.2-1.2v-8.2h8.2c.6 0 1.2.5 1.2 1.2v1.3c0 .1.1.2.2.2h.9c.1 0 .2-.1.2-.2V88c.1-1.4-1-2.5-2.4-2.5z" clip-path="url(#Bh)" class="Bv"/><defs><path id="Bi" d="M43 115.5h0 12v-12H43z"/></defs><clipPath id="Bj"><use xlink:href="#Bi"/></clipPath><path d="M52.5 115.5H43V106c0-1.3 1.1-2.4 2.4-2.4h3.2c.1 0 .2.1.2.2v.9c0 .1-.1.2-.2.2h-3.2c-.6 0-1.2.5-1.2 1.2v8.2h8.2c.6 0 1.2-.5 1.2-1.2v-1.3c0-.1.1-.2.2-.2h.9c.1 0 .2.1.2.2v1.3c.1 1.3-1 2.4-2.4 2.4z" clip-path="url(#Bj)" class="Bv"/></g><defs><path id="Bk" d="M71.9 85.5h0-12v30h12z"/></defs><clipPath id="Bl"><use xlink:href="#Bk"/></clipPath><g clip-path="url(#Bl)"><defs><path id="Bm" d="M71.9 85.5h0-12v12h12z"/></defs><clipPath id="Bn"><use xlink:href="#Bm"/></clipPath><path d="M62.4 85.5h9.5V95c0 1.3-1.1 2.4-2.4 2.4h-3.2c-.1 0-.2-.1-.2-.2v-.9c0-.1.1-.2.2-.2h3.2c.6 0 1.2-.5 1.2-1.2v-8.2h-8.2c-.6 0-1.2.5-1.2 1.2v1.3c0 .1-.1.2-.2.2h-.9c-.1 0-.2-.1-.2-.2V88c-.1-1.4 1-2.5 2.4-2.5z" clip-path="url(#Bn)" class="Bv"/><defs><path id="Bo" d="M71.9 115.5h0-12v-12h12z"/></defs><clipPath id="Bp"><use xlink:href="#Bo"/></clipPath><path d="M62.4 115.5h9.5V106c0-1.3-1.1-2.4-2.4-2.4h-3.2c-.1 0-.2.1-.2.2v.9c0 .1.1.2.2.2h3.2c.6 0 1.2.5 1.2 1.2v8.2h-8.2c-.6 0-1.2-.5-1.2-1.2v-1.3c0-.1-.1-.2-.2-.2h-.9c-.1 0-.2.1-.2.2v1.3c-.1 1.3 1 2.4 2.4 2.4z" clip-path="url(#Bp)" class="Bv"/></g><defs><path id="Bq" d="M86 85.5h0 12v30H86z"/></defs><clipPath id="Br"><use xlink:href="#Bq"/></clipPath><g clip-path="url(#Br)"><defs><path id="Bs" d="M86 85.5h0 12v12H86z"/></defs><clipPath id="Bt"><use xlink:href="#Bs"/></clipPath><path d="M95.5 85.5H86V95c0 1.3 1.1 2.4 2.4 2.4h3.2c.1 0 .2-.1.2-.2v-.9c0-.1-.1-.2-.2-.2h-3.2c-.6 0-1.2-.5-1.2-1.2v-8.2h8.2c.6 0 1.2.5 1.2 1.2v1.3c0 .1.1.2.2.2h.9c.1 0 .2-.1.2-.2V88c.1-1.4-1-2.5-2.4-2.5z" clip-path="url(#Bt)" class="Bv"/><defs><path id="Bu" d="M86 115.5h0 12v-12H86z"/></defs><clipPath id="Bv"><use xlink:href="#Bu"/></clipPath><path d="M95.5 115.5H86V106c0-1.3 1.1-2.4 2.4-2.4h3.2c.1 0 .2.1.2.2v.9c0 .1-.1.2-.2.2h-3.2c-.6 0-1.2.5-1.2 1.2v8.2h8.2c.6 0 1.2-.5 1.2-1.2v-1.3c0-.1.1-.2.2-.2h.9c.1 0 .2.1.2.2v1.3c.1 1.3-1 2.4-2.4 2.4z" clip-path="url(#Bv)" class="Bv"/></g><defs><path id="Bw" d="M114.9 85.5h0-12v30h12z"/></defs><clipPath id="Bx"><use xlink:href="#Bw"/></clipPath><g clip-path="url(#Bx)"><defs><path id="By" d="M114.9 85.5h0-12v12h12z"/></defs><clipPath id="Bz"><use xlink:href="#By"/></clipPath><path d="M105.4 85.5h9.5V95c0 1.3-1.1 2.4-2.4 2.4h-3.2c-.1 0-.2-.1-.2-.2v-.9c0-.1.1-.2.2-.2h3.2c.6 0 1.2-.5 1.2-1.2v-8.2h-8.2c-.6 0-1.2.5-1.2 1.2v1.3c0 .1-.1.2-.2.2h-.9c-.1 0-.2-.1-.2-.2V88c-.1-1.4 1-2.5 2.4-2.5z" clip-path="url(#Bz)" class="Bv"/><defs><path id="CA" d="M114.9 115.5h0-12v-12h12z"/></defs><clipPath id="CB"><use xlink:href="#CA"/></clipPath><path d="M105.4 115.5h9.5V106c0-1.3-1.1-2.4-2.4-2.4h-3.2c-.1 0-.2.1-.2.2v.9c0 .1.1.2.2.2h3.2c.6 0 1.2.5 1.2 1.2v8.2h-8.2c-.6 0-1.2-.5-1.2-1.2v-1.3c0-.1-.1-.2-.2-.2h-.9c-.1 0-.2.1-.2.2v1.3c-.1 1.3 1 2.4 2.4 2.4z" clip-path="url(#CB)" class="Bv"/></g><defs><path id="CC" d="M129 85.5h0 12v30h-12z"/></defs><clipPath id="CD"><use xlink:href="#CC"/></clipPath><g clip-path="url(#CD)"><defs><path id="CE" d="M129 85.5h0 12v12h-12z"/></defs><clipPath id="CF"><use xlink:href="#CE"/></clipPath><path d="M138.5 85.5H129V95c0 1.3 1.1 2.4 2.4 2.4h3.2c.1 0 .2-.1.2-.2v-.9c0-.1-.1-.2-.2-.2h-3.2c-.6 0-1.2-.5-1.2-1.2v-8.2h8.2c.6 0 1.2.5 1.2 1.2v1.3c0 .1.1.2.2.2h.9c.1 0 .2-.1.2-.2V88c.1-1.4-1-2.5-2.4-2.5z" clip-path="url(#CF)" class="Bv"/><defs><path id="CG" d="M129 115.5h0 12v-12h-12z"/></defs><clipPath id="CH"><use xlink:href="#CG"/></clipPath><path d="M138.5 115.5H129V106c0-1.3 1.1-2.4 2.4-2.4h3.2c.1 0 .2.1.2.2v.9c0 .1-.1.2-.2.2h-3.2c-.6 0-1.2.5-1.2 1.2v8.2h8.2c.6 0 1.2-.5 1.2-1.2v-1.3c0-.1.1-.2.2-.2h.9c.1 0 .2.1.2.2v1.3c.1 1.3-1 2.4-2.4 2.4z" clip-path="url(#CH)" class="Bv"/></g><defs><path id="CI" d="M157.9 85.5h0-12v30h12z"/></defs><clipPath id="CJ"><use xlink:href="#CI"/></clipPath><g clip-path="url(#CJ)"><defs><path id="CK" d="M157.9 85.5h0-12v12h12z"/></defs><clipPath id="CL"><use xlink:href="#CK"/></clipPath><path d="M148.4 85.5h9.5V95c0 1.3-1.1 2.4-2.4 2.4h-3.2c-.1 0-.2-.1-.2-.2v-.9c0-.1.1-.2.2-.2h3.2c.6 0 1.2-.5 1.2-1.2v-8.2h-8.2c-.6 0-1.2.5-1.2 1.2v1.3c0 .1-.1.2-.2.2h-.9c-.1 0-.2-.1-.2-.2V88c-.1-1.4 1-2.5 2.4-2.5z" clip-path="url(#CL)" class="Bv"/><defs><path id="CM" d="M157.9 115.5h0-12v-12h12z"/></defs><clipPath id="CN"><use xlink:href="#CM"/></clipPath><path d="M148.4 115.5h9.5V106c0-1.3-1.1-2.4-2.4-2.4h-3.2c-.1 0-.2.1-.2.2v.9c0 .1.1.2.2.2h3.2c.6 0 1.2.5 1.2 1.2v8.2h-8.2c-.6 0-1.2-.5-1.2-1.2v-1.3c0-.1-.1-.2-.2-.2h-.9c-.1 0-.2.1-.2.2v1.3c-.1 1.3 1 2.4 2.4 2.4z" clip-path="url(#CN)" class="Bv"/></g><defs><path id="CO" d="M172 85.5h0 12v30h-12z"/></defs><clipPath id="CP"><use xlink:href="#CO"/></clipPath><g clip-path="url(#CP)"><defs><path id="CQ" d="M172 85.5h0 12v12h-12z"/></defs><clipPath id="CR"><use xlink:href="#CQ"/></clipPath><path d="M181.5 85.5H172V95c0 1.3 1.1 2.4 2.4 2.4h3.2c.1 0 .2-.1.2-.2v-.9c0-.1-.1-.2-.2-.2h-3.2c-.6 0-1.2-.5-1.2-1.2v-8.2h8.2c.6 0 1.2.5 1.2 1.2v1.3c0 .1.1.2.2.2h.9c.1 0 .2-.1.2-.2V88c.1-1.4-1-2.5-2.4-2.5z" clip-path="url(#CR)" class="Bv"/><defs><path id="CS" d="M172 115.5h0 12v-12h-12z"/></defs><clipPath id="CT"><use xlink:href="#CS"/></clipPath><path d="M181.5 115.5H172V106c0-1.3 1.1-2.4 2.4-2.4h3.2c.1 0 .2.1.2.2v.9c0 .1-.1.2-.2.2h-3.2c-.6 0-1.2.5-1.2 1.2v8.2h8.2c.6 0 1.2-.5 1.2-1.2v-1.3c0-.1.1-.2.2-.2h.9c.1 0 .2.1.2.2v1.3c.1 1.3-1 2.4-2.4 2.4z" clip-path="url(#CT)" class="Bv"/></g><defs><path id="CU" d="M200.9 85.5h0-12v30h12z"/></defs><clipPath id="CV"><use xlink:href="#CU"/></clipPath><g clip-path="url(#CV)"><defs><path id="CW" d="M200.9 85.5h0-12v12h12z"/></defs><clipPath id="CX"><use xlink:href="#CW"/></clipPath><path d="M191.4 85.5h9.5V95c0 1.3-1.1 2.4-2.4 2.4h-3.2c-.1 0-.2-.1-.2-.2v-.9c0-.1.1-.2.2-.2h3.2c.6 0 1.2-.5 1.2-1.2v-8.2h-8.2c-.6 0-1.2.5-1.2 1.2v1.3c0 .1-.1.2-.2.2h-.9c-.1 0-.2-.1-.2-.2V88c-.1-1.4 1-2.5 2.4-2.5z" clip-path="url(#CX)" class="Bv"/><defs><path id="CY" d="M200.9 115.5h0-12v-12h12z"/></defs><clipPath id="CZ"><use xlink:href="#CY"/></clipPath><path d="M191.4 115.5h9.5V106c0-1.3-1.1-2.4-2.4-2.4h-3.2c-.1 0-.2.1-.2.2v.9c0 .1.1.2.2.2h3.2c.6 0 1.2.5 1.2 1.2v8.2h-8.2c-.6 0-1.2-.5-1.2-1.2v-1.3c0-.1-.1-.2-.2-.2h-.9c-.1 0-.2.1-.2.2v1.3c-.1 1.3 1 2.4 2.4 2.4z" clip-path="url(#CZ)" class="Bv"/></g><defs><path id="Ca" d="M0 128.3h0 12v29.9H0z"/></defs><clipPath id="Cb"><use xlink:href="#Ca"/></clipPath><g clip-path="url(#Cb)"><defs><path id="Cc" d="M0 128.3h0 12v11.9H0z"/></defs><clipPath id="Cd"><use xlink:href="#Cc"/></clipPath><path d="M9.5 128.3H0v9.5c0 1.3 1.1 2.4 2.4 2.4h3.2c.1 0 .2-.1.2-.2v-.9c0-.1-.1-.2-.2-.2H2.4c-.6 0-1.2-.5-1.2-1.2v-8.2h8.2c.6 0 1.2.5 1.2 1.2v1.3c0 .1.1.2.2.2h.9c.1 0 .2-.1.2-.2v-1.3c.1-1.3-1-2.4-2.4-2.4z" clip-path="url(#Cd)" class="Bv"/><defs><path id="Ce" d="M0 158.2h0 12v-11.9H0z"/></defs><clipPath id="Cf"><use xlink:href="#Ce"/></clipPath><path d="M9.5 158.2H0v-9.5c0-1.3 1.1-2.4 2.4-2.4h3.2c.1 0 .2.1.2.2v.9c0 .1-.1.2-.2.2H2.4c-.6 0-1.2.5-1.2 1.2v8.2h8.2c.6 0 1.2-.5 1.2-1.2v-1.3c0-.1.1-.2.2-.2h.9c.1 0 .2.1.2.2v1.3c.1 1.3-1 2.4-2.4 2.4z" clip-path="url(#Cf)" class="Bv"/></g><defs><path id="Cg" d="M28.9 128.3h0-12v29.9h12z"/></defs><clipPath id="Ch"><use xlink:href="#Cg"/></clipPath><g clip-path="url(#Ch)"><defs><path id="Ci" d="M28.9 128.3h0-12v11.9h12z"/></defs><clipPath id="Cj"><use xlink:href="#Ci"/></clipPath><path d="M19.4 128.3h9.5v9.5c0 1.3-1.1 2.4-2.4 2.4h-3.2c-.1 0-.2-.1-.2-.2v-.9c0-.1.1-.2.2-.2h3.2c.6 0 1.2-.5 1.2-1.2v-8.2h-8.2c-.6 0-1.2.5-1.2 1.2v1.3c0 .1-.1.2-.2.2h-.9c-.1 0-.2-.1-.2-.2v-1.3c-.1-1.3 1-2.4 2.4-2.4z" clip-path="url(#Cj)" class="Bv"/><defs><path id="Ck" d="M28.9 158.2h0-12v-11.9h12z"/></defs><clipPath id="Cl"><use xlink:href="#Ck"/></clipPath><path d="M19.4 158.2h9.5v-9.5c0-1.3-1.1-2.4-2.4-2.4h-3.2c-.1 0-.2.1-.2.2v.9c0 .1.1.2.2.2h3.2c.6 0 1.2.5 1.2 1.2v8.2h-8.2c-.6 0-1.2-.5-1.2-1.2v-1.3c0-.1-.1-.2-.2-.2h-.9c-.1 0-.2.1-.2.2v1.3c-.1 1.3 1 2.4 2.4 2.4z" clip-path="url(#Cl)" class="Bv"/></g><defs><path id="Cm" d="M43 128.3h0 12v29.9H43z"/></defs><clipPath id="Cn"><use xlink:href="#Cm"/></clipPath><g clip-path="url(#Cn)"><defs><path id="Co" d="M43 128.3h0 12v11.9H43z"/></defs><clipPath id="Cp"><use xlink:href="#Co"/></clipPath><path d="M52.5 128.3H43v9.5c0 1.3 1.1 2.4 2.4 2.4h3.2c.1 0 .2-.1.2-.2v-.9c0-.1-.1-.2-.2-.2h-3.2c-.6 0-1.2-.5-1.2-1.2v-8.2h8.2c.6 0 1.2.5 1.2 1.2v1.3c0 .1.1.2.2.2h.9c.1 0 .2-.1.2-.2v-1.3c.1-1.3-1-2.4-2.4-2.4z" clip-path="url(#Cp)" class="Bv"/><defs><path id="Cq" d="M43 158.2h0 12v-11.9H43z"/></defs><clipPath id="Cr"><use xlink:href="#Cq"/></clipPath><path d="M52.5 158.2H43v-9.5c0-1.3 1.1-2.4 2.4-2.4h3.2c.1 0 .2.1.2.2v.9c0 .1-.1.2-.2.2h-3.2c-.6 0-1.2.5-1.2 1.2v8.2h8.2c.6 0 1.2-.5 1.2-1.2v-1.3c0-.1.1-.2.2-.2h.9c.1 0 .2.1.2.2v1.3c.1 1.3-1 2.4-2.4 2.4z" clip-path="url(#Cr)" class="Bv"/></g><defs><path id="Cs" d="M71.9 128.3h0-12v29.9h12z"/></defs><clipPath id="Ct"><use xlink:href="#Cs"/></clipPath><g clip-path="url(#Ct)"><defs><path id="Cu" d="M71.9 128.3h0-12v11.9h12z"/></defs><clipPath id="Cv"><use xlink:href="#Cu"/></clipPath><path d="M62.4 128.3h9.5v9.5c0 1.3-1.1 2.4-2.4 2.4h-3.2c-.1 0-.2-.1-.2-.2v-.9c0-.1.1-.2.2-.2h3.2c.6 0 1.2-.5 1.2-1.2v-8.2h-8.2c-.6 0-1.2.5-1.2 1.2v1.3c0 .1-.1.2-.2.2h-.9c-.1 0-.2-.1-.2-.2v-1.3c-.1-1.3 1-2.4 2.4-2.4z" clip-path="url(#Cv)" class="Bv"/><defs><path id="Cw" d="M71.9 158.2h0-12v-11.9h12z"/></defs><clipPath id="Cx"><use xlink:href="#Cw"/></clipPath><path d="M62.4 158.2h9.5v-9.5c0-1.3-1.1-2.4-2.4-2.4h-3.2c-.1 0-.2.1-.2.2v.9c0 .1.1.2.2.2h3.2c.6 0 1.2.5 1.2 1.2v8.2h-8.2c-.6 0-1.2-.5-1.2-1.2v-1.3c0-.1-.1-.2-.2-.2h-.9c-.1 0-.2.1-.2.2v1.3c-.1 1.3 1 2.4 2.4 2.4z" clip-path="url(#Cx)" class="Bv"/></g><defs><path id="Cy" d="M86 128.3h0 12v29.9H86z"/></defs><clipPath id="Cz"><use xlink:href="#Cy"/></clipPath><g clip-path="url(#Cz)"><defs><path id="DA" d="M86 128.3h0 12v11.9H86z"/></defs><clipPath id="DB"><use xlink:href="#DA"/></clipPath><path d="M95.5 128.3H86v9.5c0 1.3 1.1 2.4 2.4 2.4h3.2c.1 0 .2-.1.2-.2v-.9c0-.1-.1-.2-.2-.2h-3.2c-.6 0-1.2-.5-1.2-1.2v-8.2h8.2c.6 0 1.2.5 1.2 1.2v1.3c0 .1.1.2.2.2h.9c.1 0 .2-.1.2-.2v-1.3c.1-1.3-1-2.4-2.4-2.4z" clip-path="url(#DB)" class="Bv"/><defs><path id="DC" d="M86 158.2h0 12v-11.9H86z"/></defs><clipPath id="DD"><use xlink:href="#DC"/></clipPath><path d="M95.5 158.2H86v-9.5c0-1.3 1.1-2.4 2.4-2.4h3.2c.1 0 .2.1.2.2v.9c0 .1-.1.2-.2.2h-3.2c-.6 0-1.2.5-1.2 1.2v8.2h8.2c.6 0 1.2-.5 1.2-1.2v-1.3c0-.1.1-.2.2-.2h.9c.1 0 .2.1.2.2v1.3c.1 1.3-1 2.4-2.4 2.4z" clip-path="url(#DD)" class="Bv"/></g><defs><path id="DE" d="M114.9 128.3h0-12v29.9h12z"/></defs><clipPath id="DF"><use xlink:href="#DE"/></clipPath><g clip-path="url(#DF)"><defs><path id="DG" d="M114.9 128.3h0-12v11.9h12z"/></defs><clipPath id="DH"><use xlink:href="#DG"/></clipPath><path d="M105.4 128.3h9.5v9.5c0 1.3-1.1 2.4-2.4 2.4h-3.2c-.1 0-.2-.1-.2-.2v-.9c0-.1.1-.2.2-.2h3.2c.6 0 1.2-.5 1.2-1.2v-8.2h-8.2c-.6 0-1.2.5-1.2 1.2v1.3c0 .1-.1.2-.2.2h-.9c-.1 0-.2-.1-.2-.2v-1.3c-.1-1.3 1-2.4 2.4-2.4z" clip-path="url(#DH)" class="Bv"/><defs><path id="DI" d="M114.9 158.2h0-12v-11.9h12z"/></defs><clipPath id="DJ"><use xlink:href="#DI"/></clipPath><path d="M105.4 158.2h9.5v-9.5c0-1.3-1.1-2.4-2.4-2.4h-3.2c-.1 0-.2.1-.2.2v.9c0 .1.1.2.2.2h3.2c.6 0 1.2.5 1.2 1.2v8.2h-8.2c-.6 0-1.2-.5-1.2-1.2v-1.3c0-.1-.1-.2-.2-.2h-.9c-.1 0-.2.1-.2.2v1.3c-.1 1.3 1 2.4 2.4 2.4z" clip-path="url(#DJ)" class="Bv"/></g><defs><path id="DK" d="M129 128.3h0 12v29.9h-12z"/></defs><clipPath id="DL"><use xlink:href="#DK"/></clipPath><g clip-path="url(#DL)"><defs><path id="DM" d="M129 128.3h0 12v11.9h-12z"/></defs><clipPath id="DN"><use xlink:href="#DM"/></clipPath><path d="M138.5 128.3H129v9.5c0 1.3 1.1 2.4 2.4 2.4h3.2c.1 0 .2-.1.2-.2v-.9c0-.1-.1-.2-.2-.2h-3.2c-.6 0-1.2-.5-1.2-1.2v-8.2h8.2c.6 0 1.2.5 1.2 1.2v1.3c0 .1.1.2.2.2h.9c.1 0 .2-.1.2-.2v-1.3c.1-1.3-1-2.4-2.4-2.4z" clip-path="url(#DN)" class="Bv"/><defs><path id="DO" d="M129 158.2h0 12v-11.9h-12z"/></defs><clipPath id="DP"><use xlink:href="#DO"/></clipPath><path d="M138.5 158.2H129v-9.5c0-1.3 1.1-2.4 2.4-2.4h3.2c.1 0 .2.1.2.2v.9c0 .1-.1.2-.2.2h-3.2c-.6 0-1.2.5-1.2 1.2v8.2h8.2c.6 0 1.2-.5 1.2-1.2v-1.3c0-.1.1-.2.2-.2h.9c.1 0 .2.1.2.2v1.3c.1 1.3-1 2.4-2.4 2.4z" clip-path="url(#DP)" class="Bv"/></g><defs><path id="DQ" d="M157.9 128.3h0-12v29.9h12z"/></defs><clipPath id="DR"><use xlink:href="#DQ"/></clipPath><g clip-path="url(#DR)"><defs><path id="DS" d="M157.9 128.3h0-12v11.9h12z"/></defs><clipPath id="DT"><use xlink:href="#DS"/></clipPath><path d="M148.4 128.3h9.5v9.5c0 1.3-1.1 2.4-2.4 2.4h-3.2c-.1 0-.2-.1-.2-.2v-.9c0-.1.1-.2.2-.2h3.2c.6 0 1.2-.5 1.2-1.2v-8.2h-8.2c-.6 0-1.2.5-1.2 1.2v1.3c0 .1-.1.2-.2.2h-.9c-.1 0-.2-.1-.2-.2v-1.3c-.1-1.3 1-2.4 2.4-2.4z" clip-path="url(#DT)" class="Bv"/><defs><path id="DU" d="M157.9 158.2h0-12v-11.9h12z"/></defs><clipPath id="DV"><use xlink:href="#DU"/></clipPath><path d="M148.4 158.2h9.5v-9.5c0-1.3-1.1-2.4-2.4-2.4h-3.2c-.1 0-.2.1-.2.2v.9c0 .1.1.2.2.2h3.2c.6 0 1.2.5 1.2 1.2v8.2h-8.2c-.6 0-1.2-.5-1.2-1.2v-1.3c0-.1-.1-.2-.2-.2h-.9c-.1 0-.2.1-.2.2v1.3c-.1 1.3 1 2.4 2.4 2.4z" clip-path="url(#DV)" class="Bv"/></g><defs><path id="DW" d="M172 128.3h0 12v29.9h-12z"/></defs><clipPath id="DX"><use xlink:href="#DW"/></clipPath><g clip-path="url(#DX)"><defs><path id="DY" d="M172 128.3h0 12v11.9h-12z"/></defs><clipPath id="DZ"><use xlink:href="#DY"/></clipPath><path d="M181.5 128.3H172v9.5c0 1.3 1.1 2.4 2.4 2.4h3.2c.1 0 .2-.1.2-.2v-.9c0-.1-.1-.2-.2-.2h-3.2c-.6 0-1.2-.5-1.2-1.2v-8.2h8.2c.6 0 1.2.5 1.2 1.2v1.3c0 .1.1.2.2.2h.9c.1 0 .2-.1.2-.2v-1.3c.1-1.3-1-2.4-2.4-2.4z" clip-path="url(#DZ)" class="Bv"/><defs><path id="Da" d="M172 158.2h0 12v-11.9h-12z"/></defs><clipPath id="Db"><use xlink:href="#Da"/></clipPath><path d="M181.5 158.2H172v-9.5c0-1.3 1.1-2.4 2.4-2.4h3.2c.1 0 .2.1.2.2v.9c0 .1-.1.2-.2.2h-3.2c-.6 0-1.2.5-1.2 1.2v8.2h8.2c.6 0 1.2-.5 1.2-1.2v-1.3c0-.1.1-.2.2-.2h.9c.1 0 .2.1.2.2v1.3c.1 1.3-1 2.4-2.4 2.4z" clip-path="url(#Db)" class="Bv"/></g><defs><path id="Dc" d="M200.9 128.3h0-12v29.9h12z"/></defs><clipPath id="Dd"><use xlink:href="#Dc"/></clipPath><g clip-path="url(#Dd)"><defs><path id="De" d="M200.9 128.3h0-12v11.9h12z"/></defs><clipPath id="Df"><use xlink:href="#De"/></clipPath><path d="M191.4 128.3h9.5v9.5c0 1.3-1.1 2.4-2.4 2.4h-3.2c-.1 0-.2-.1-.2-.2v-.9c0-.1.1-.2.2-.2h3.2c.6 0 1.2-.5 1.2-1.2v-8.2h-8.2c-.6 0-1.2.5-1.2 1.2v1.3c0 .1-.1.2-.2.2h-.9c-.1 0-.2-.1-.2-.2v-1.3c-.1-1.3 1-2.4 2.4-2.4z" clip-path="url(#Df)" class="Bv"/><defs><path id="Dg" d="M200.9 158.2h0-12v-11.9h12z"/></defs><clipPath id="Dh"><use xlink:href="#Dg"/></clipPath><path d="M191.4 158.2h9.5v-9.5c0-1.3-1.1-2.4-2.4-2.4h-3.2c-.1 0-.2.1-.2.2v.9c0 .1.1.2.2.2h3.2c.6 0 1.2.5 1.2 1.2v8.2h-8.2c-.6 0-1.2-.5-1.2-1.2v-1.3c0-.1-.1-.2-.2-.2h-.9c-.1 0-.2.1-.2.2v1.3c-.1 1.3 1 2.4 2.4 2.4z" clip-path="url(#Dh)" class="Bv"/></g><defs><path id="Di" d="M0 171h0 12v30H0z"/></defs><clipPath id="Dj"><use xlink:href="#Di"/></clipPath><g clip-path="url(#Dj)"><defs><path id="Dk" d="M0 171h0 12v12H0z"/></defs><clipPath id="Dl"><use xlink:href="#Dk"/></clipPath><path d="M9.5 171H0v9.5c0 1.3 1.1 2.4 2.4 2.4h3.2c.1 0 .2-.1.2-.2v-.9c0-.1-.1-.2-.2-.2H2.4c-.6 0-1.2-.5-1.2-1.2v-8.2h8.2c.6 0 1.2.5 1.2 1.2v1.3c0 .1.1.2.2.2h.9c.1 0 .2-.1.2-.2v-1.3c.1-1.3-1-2.4-2.4-2.4z" clip-path="url(#Dl)" class="Bv"/><defs><path id="Dm" d="M0 201h0 12v-12H0z"/></defs><clipPath id="Dn"><use xlink:href="#Dm"/></clipPath><path d="M9.5 201H0v-9.5c0-1.3 1.1-2.4 2.4-2.4h3.2c.1 0 .2.1.2.2v.9c0 .1-.1.2-.2.2H2.4c-.6 0-1.2.5-1.2 1.2v8.2h8.2c.6 0 1.2-.5 1.2-1.2v-1.3c0-.1.1-.2.2-.2h.9c.1 0 .2.1.2.2v1.3c.1 1.3-1 2.4-2.4 2.4z" clip-path="url(#Dn)" class="Bv"/></g><defs><path id="Do" d="M28.9 171h0-12v30h12z"/></defs><clipPath id="Dp"><use xlink:href="#Do"/></clipPath><g clip-path="url(#Dp)"><defs><path id="Dq" d="M28.9 171h0-12v12h12z"/></defs><clipPath id="Dr"><use xlink:href="#Dq"/></clipPath><path d="M19.4 171h9.5v9.5c0 1.3-1.1 2.4-2.4 2.4h-3.2c-.1 0-.2-.1-.2-.2v-.9c0-.1.1-.2.2-.2h3.2c.6 0 1.2-.5 1.2-1.2v-8.2h-8.2c-.6 0-1.2.5-1.2 1.2v1.3c0 .1-.1.2-.2.2h-.9c-.1 0-.2-.1-.2-.2v-1.3c-.1-1.3 1-2.4 2.4-2.4z" clip-path="url(#Dr)" class="Bv"/><defs><path id="Ds" d="M28.9 201h0-12v-12h12z"/></defs><clipPath id="Dt"><use xlink:href="#Ds"/></clipPath><path d="M19.4 201h9.5v-9.5c0-1.3-1.1-2.4-2.4-2.4h-3.2c-.1 0-.2.1-.2.2v.9c0 .1.1.2.2.2h3.2c.6 0 1.2.5 1.2 1.2v8.2h-8.2c-.6 0-1.2-.5-1.2-1.2v-1.3c0-.1-.1-.2-.2-.2h-.9c-.1 0-.2.1-.2.2v1.3c-.1 1.3 1 2.4 2.4 2.4z" clip-path="url(#Dt)" class="Bv"/></g><defs><path id="Du" d="M43 171h0 12v30H43z"/></defs><clipPath id="Dv"><use xlink:href="#Du"/></clipPath><g clip-path="url(#Dv)"><defs><path id="Dw" d="M43 171h0 12v12H43z"/></defs><clipPath id="Dx"><use xlink:href="#Dw"/></clipPath><path d="M52.5 171H43v9.5c0 1.3 1.1 2.4 2.4 2.4h3.2c.1 0 .2-.1.2-.2v-.9c0-.1-.1-.2-.2-.2h-3.2c-.6 0-1.2-.5-1.2-1.2v-8.2h8.2c.6 0 1.2.5 1.2 1.2v1.3c0 .1.1.2.2.2h.9c.1 0 .2-.1.2-.2v-1.3c.1-1.3-1-2.4-2.4-2.4z" clip-path="url(#Dx)" class="Bv"/><defs><path id="Dy" d="M43 201h0 12v-12H43z"/></defs><clipPath id="Dz"><use xlink:href="#Dy"/></clipPath><path d="M52.5 201H43v-9.5c0-1.3 1.1-2.4 2.4-2.4h3.2c.1 0 .2.1.2.2v.9c0 .1-.1.2-.2.2h-3.2c-.6 0-1.2.5-1.2 1.2v8.2h8.2c.6 0 1.2-.5 1.2-1.2v-1.3c0-.1.1-.2.2-.2h.9c.1 0 .2.1.2.2v1.3c.1 1.3-1 2.4-2.4 2.4z" clip-path="url(#Dz)" class="Bv"/></g><defs><path id="EA" d="M71.9 171h0-12v30h12z"/></defs><clipPath id="EB"><use xlink:href="#EA"/></clipPath><g clip-path="url(#EB)"><defs><path id="EC" d="M71.9 171h0-12v12h12z"/></defs><clipPath id="ED"><use xlink:href="#EC"/></clipPath><path d="M62.4 171h9.5v9.5c0 1.3-1.1 2.4-2.4 2.4h-3.2c-.1 0-.2-.1-.2-.2v-.9c0-.1.1-.2.2-.2h3.2c.6 0 1.2-.5 1.2-1.2v-8.2h-8.2c-.6 0-1.2.5-1.2 1.2v1.3c0 .1-.1.2-.2.2h-.9c-.1 0-.2-.1-.2-.2v-1.3c-.1-1.3 1-2.4 2.4-2.4z" clip-path="url(#ED)" class="Bv"/><defs><path id="EE" d="M71.9 201h0-12v-12h12z"/></defs><clipPath id="EF"><use xlink:href="#EE"/></clipPath><path d="M62.4 201h9.5v-9.5c0-1.3-1.1-2.4-2.4-2.4h-3.2c-.1 0-.2.1-.2.2v.9c0 .1.1.2.2.2h3.2c.6 0 1.2.5 1.2 1.2v8.2h-8.2c-.6 0-1.2-.5-1.2-1.2v-1.3c0-.1-.1-.2-.2-.2h-.9c-.1 0-.2.1-.2.2v1.3c-.1 1.3 1 2.4 2.4 2.4z" clip-path="url(#EF)" class="Bv"/></g><defs><path id="EG" d="M86 171h0 12v30H86z"/></defs><clipPath id="EH"><use xlink:href="#EG"/></clipPath><g clip-path="url(#EH)"><defs><path id="EI" d="M86 171h0 12v12H86z"/></defs><clipPath id="EJ"><use xlink:href="#EI"/></clipPath><path d="M95.5 171H86v9.5c0 1.3 1.1 2.4 2.4 2.4h3.2c.1 0 .2-.1.2-.2v-.9c0-.1-.1-.2-.2-.2h-3.2c-.6 0-1.2-.5-1.2-1.2v-8.2h8.2c.6 0 1.2.5 1.2 1.2v1.3c0 .1.1.2.2.2h.9c.1 0 .2-.1.2-.2v-1.3c.1-1.3-1-2.4-2.4-2.4z" clip-path="url(#EJ)" class="Bv"/><defs><path id="EK" d="M86 201h0 12v-12H86z"/></defs><clipPath id="EL"><use xlink:href="#EK"/></clipPath><path d="M95.5 201H86v-9.5c0-1.3 1.1-2.4 2.4-2.4h3.2c.1 0 .2.1.2.2v.9c0 .1-.1.2-.2.2h-3.2c-.6 0-1.2.5-1.2 1.2v8.2h8.2c.6 0 1.2-.5 1.2-1.2v-1.3c0-.1.1-.2.2-.2h.9c.1 0 .2.1.2.2v1.3c.1 1.3-1 2.4-2.4 2.4z" clip-path="url(#EL)" class="Bv"/></g><defs><path id="EM" d="M114.9 171h0-12v30h12z"/></defs><clipPath id="EN"><use xlink:href="#EM"/></clipPath><g clip-path="url(#EN)"><defs><path id="EO" d="M114.9 171h0-12v12h12z"/></defs><clipPath id="EP"><use xlink:href="#EO"/></clipPath><path d="M105.4 171h9.5v9.5c0 1.3-1.1 2.4-2.4 2.4h-3.2c-.1 0-.2-.1-.2-.2v-.9c0-.1.1-.2.2-.2h3.2c.6 0 1.2-.5 1.2-1.2v-8.2h-8.2c-.6 0-1.2.5-1.2 1.2v1.3c0 .1-.1.2-.2.2h-.9c-.1 0-.2-.1-.2-.2v-1.3c-.1-1.3 1-2.4 2.4-2.4z" clip-path="url(#EP)" class="Bv"/><defs><path id="EQ" d="M114.9 201h0-12v-12h12z"/></defs><clipPath id="ER"><use xlink:href="#EQ"/></clipPath><path d="M105.4 201h9.5v-9.5c0-1.3-1.1-2.4-2.4-2.4h-3.2c-.1 0-.2.1-.2.2v.9c0 .1.1.2.2.2h3.2c.6 0 1.2.5 1.2 1.2v8.2h-8.2c-.6 0-1.2-.5-1.2-1.2v-1.3c0-.1-.1-.2-.2-.2h-.9c-.1 0-.2.1-.2.2v1.3c-.1 1.3 1 2.4 2.4 2.4z" clip-path="url(#ER)" class="Bv"/></g><defs><path id="ES" d="M129 171h0 12v30h-12z"/></defs><clipPath id="ET"><use xlink:href="#ES"/></clipPath><g clip-path="url(#ET)"><defs><path id="EU" d="M129 171h0 12v12h-12z"/></defs><clipPath id="EV"><use xlink:href="#EU"/></clipPath><path d="M138.5 171H129v9.5c0 1.3 1.1 2.4 2.4 2.4h3.2c.1 0 .2-.1.2-.2v-.9c0-.1-.1-.2-.2-.2h-3.2c-.6 0-1.2-.5-1.2-1.2v-8.2h8.2c.6 0 1.2.5 1.2 1.2v1.3c0 .1.1.2.2.2h.9c.1 0 .2-.1.2-.2v-1.3c.1-1.3-1-2.4-2.4-2.4z" clip-path="url(#EV)" class="Bv"/><defs><path id="EW" d="M129 201h0 12v-12h-12z"/></defs><clipPath id="EX"><use xlink:href="#EW"/></clipPath><path d="M138.5 201H129v-9.5c0-1.3 1.1-2.4 2.4-2.4h3.2c.1 0 .2.1.2.2v.9c0 .1-.1.2-.2.2h-3.2c-.6 0-1.2.5-1.2 1.2v8.2h8.2c.6 0 1.2-.5 1.2-1.2v-1.3c0-.1.1-.2.2-.2h.9c.1 0 .2.1.2.2v1.3c.1 1.3-1 2.4-2.4 2.4z" clip-path="url(#EX)" class="Bv"/></g><defs><path id="EY" d="M157.9 171h0-12v30h12z"/></defs><clipPath id="EZ"><use xlink:href="#EY"/></clipPath><g clip-path="url(#EZ)"><defs><path id="Ea" d="M157.9 171h0-12v12h12z"/></defs><clipPath id="Eb"><use xlink:href="#Ea"/></clipPath><path d="M148.4 171h9.5v9.5c0 1.3-1.1 2.4-2.4 2.4h-3.2c-.1 0-.2-.1-.2-.2v-.9c0-.1.1-.2.2-.2h3.2c.6 0 1.2-.5 1.2-1.2v-8.2h-8.2c-.6 0-1.2.5-1.2 1.2v1.3c0 .1-.1.2-.2.2h-.9c-.1 0-.2-.1-.2-.2v-1.3c-.1-1.3 1-2.4 2.4-2.4z" clip-path="url(#Eb)" class="Bv"/><defs><path id="Ec" d="M157.9 201h0-12v-12h12z"/></defs><clipPath id="Ed"><use xlink:href="#Ec"/></clipPath><path d="M148.4 201h9.5v-9.5c0-1.3-1.1-2.4-2.4-2.4h-3.2c-.1 0-.2.1-.2.2v.9c0 .1.1.2.2.2h3.2c.6 0 1.2.5 1.2 1.2v8.2h-8.2c-.6 0-1.2-.5-1.2-1.2v-1.3c0-.1-.1-.2-.2-.2h-.9c-.1 0-.2.1-.2.2v1.3c-.1 1.3 1 2.4 2.4 2.4z" clip-path="url(#Ed)" class="Bv"/></g><defs><path id="Ee" d="M172 171h0 12v30h-12z"/></defs><clipPath id="Ef"><use xlink:href="#Ee"/></clipPath><g clip-path="url(#Ef)"><defs><path id="Eg" d="M172 171h0 12v12h-12z"/></defs><clipPath id="Eh"><use xlink:href="#Eg"/></clipPath><path d="M181.5 171H172v9.5c0 1.3 1.1 2.4 2.4 2.4h3.2c.1 0 .2-.1.2-.2v-.9c0-.1-.1-.2-.2-.2h-3.2c-.6 0-1.2-.5-1.2-1.2v-8.2h8.2c.6 0 1.2.5 1.2 1.2v1.3c0 .1.1.2.2.2h.9c.1 0 .2-.1.2-.2v-1.3c.1-1.3-1-2.4-2.4-2.4z" clip-path="url(#Eh)" class="Bv"/><defs><path id="Ei" d="M172 201h0 12v-12h-12z"/></defs><clipPath id="Ej"><use xlink:href="#Ei"/></clipPath><path d="M181.5 201H172v-9.5c0-1.3 1.1-2.4 2.4-2.4h3.2c.1 0 .2.1.2.2v.9c0 .1-.1.2-.2.2h-3.2c-.6 0-1.2.5-1.2 1.2v8.2h8.2c.6 0 1.2-.5 1.2-1.2v-1.3c0-.1.1-.2.2-.2h.9c.1 0 .2.1.2.2v1.3c.1 1.3-1 2.4-2.4 2.4z" clip-path="url(#Ej)" class="Bv"/></g><defs><path id="Ek" d="M200.9 171h0-12v30h12z"/></defs><clipPath id="El"><use xlink:href="#Ek"/></clipPath><g clip-path="url(#El)"><defs><path id="Em" d="M200.9 171h0-12v12h12z"/></defs><clipPath id="En"><use xlink:href="#Em"/></clipPath><path d="M191.4 171h9.5v9.5c0 1.3-1.1 2.4-2.4 2.4h-3.2c-.1 0-.2-.1-.2-.2v-.9c0-.1.1-.2.2-.2h3.2c.6 0 1.2-.5 1.2-1.2v-8.2h-8.2c-.6 0-1.2.5-1.2 1.2v1.3c0 .1-.1.2-.2.2h-.9c-.1 0-.2-.1-.2-.2v-1.3c-.1-1.3 1-2.4 2.4-2.4z" clip-path="url(#En)" class="Bv"/><defs><path id="Eo" d="M200.9 201h0-12v-12h12z"/></defs><clipPath id="Ep"><use xlink:href="#Eo"/></clipPath><path d="M191.4 201h9.5v-9.5c0-1.3-1.1-2.4-2.4-2.4h-3.2c-.1 0-.2.1-.2.2v.9c0 .1.1.2.2.2h3.2c.6 0 1.2.5 1.2 1.2v8.2h-8.2c-.6 0-1.2-.5-1.2-1.2v-1.3c0-.1-.1-.2-.2-.2h-.9c-.1 0-.2.1-.2.2v1.3c-.1 1.3 1 2.4 2.4 2.4z" clip-path="url(#Ep)" class="Bv"/></g></g></svg>