<svg xmlns="http://www.w3.org/2000/svg" viewBox="0 0 194.91 56.02"  xmlns:v="https://vecta.io/nano"><path d="M33.08 55.22V25a.8.8 0 0 1 .8-.8h21.34a.8.8 0 0 1 .8.8v4.19a.8.8 0 0 1-.8.8H39.1v8.71h15.21a.8.8 0 0 1 .8.8v4a.8.8 0 0 1-.8.8H39.1v11a.8.8 0 0 1-.8.8h-4.42a.8.8 0 0 1-.8-.88zm27.59-.04V24.86a.8.8 0 0 1 .8-.8h4.37a.8.8 0 0 1 .8.8v30.32a.8.8 0 0 1-.8.8h-4.37a.8.8 0 0 1-.8-.8zm18.1-20.73v20.73a.8.8 0 0 1-.8.8h-4.42a.8.8 0 0 1-.8-.8V24.86a.8.8 0 0 1 .8-.8h3.69a.8.8 0 0 1 .63.3l15.4 19.49v-19a.8.8 0 0 1 .8-.8h4.42a.8.8 0 0 1 .8.8v30.33a.8.8 0 0 1-.8.8h-2.55a.81.81 0 0 1-.63-.31zM127 50h-15.71a.79.79 0 0 0-.72.47l-2.31 5.08a.82.82 0 0 1-.73.47h-4.77a.8.8 0 0 1-.73-1.13l13.6-30.32a.79.79 0 0 1 .73-.47h5.53a.8.8 0 0 1 .73.47l13.6 30.32a.8.8 0 0 1-.73 1.13h-4.81a.8.8 0 0 1-.73-.48l-2.27-5.07A.79.79 0 0 0 127 50zm-7.83-19.2l-5.97 13.55h11.85zM194.11 56h-22.3a.8.8 0 0 1-.8-.8V24.86a.8.8 0 0 1 .8-.8h22.3a.8.8 0 0 1 .8.8v4.23a.8.8 0 0 1-.8.8H177v7.34h16.48a.8.8 0 0 1 .8.8v4a.8.8 0 0 1-.8.8H177v7.21h17.12a.8.8 0 0 1 .8.8v4.33a.8.8 0 0 1-.81.83zm-36.29-14.14l-1.4-2 1.13-1.66 8.76-12.86a.8.8 0 0 0-.66-1.26h-4.75a.82.82 0 0 0-.67.36L152.64 36l-7.73-11.55a.82.82 0 0 0-.67-.36h-4.76a.81.81 0 0 0-.66 1.26l8.85 12.86 1.14 1.66-1.39 2-8.81 12.86a.8.8 0 0 0 .66 1.25h4.85a.8.8 0 0 0 .66-.35L152.64 44l7.86 11.64a.81.81 0 0 0 .67.35H166a.8.8 0 0 0 .66-1.25z" fill="#fff"/><path d="M44.65,0H0V44.65A11.37,11.37,0,0,0,11.37,56H26.31a.8.8,0,0,0,.8-.8V50.85a.8.8,0,0,0-.8-.8H11.37A5.4,5.4,0,0,1,6,44.65V6H44.65a5.4,5.4,0,0,1,5.4,5.4v6a.8.8,0,0,0,.8.8h4.37a.8.8,0,0,0,.8-.8v-6A11.37,11.37,0,0,0,44.65,0Z" fill="#009fe3"/></svg>