<svg xmlns="http://www.w3.org/2000/svg" viewBox="0 0 64.25 18.47"><defs><style>.cls-1{fill:#383838;}.cls-2{fill:#009fe3;}</style></defs><g id="Layer_2" data-name="Layer 2"><g id="Layer_1-2" data-name="Layer 1"><path class="cls-1" d="M10.91,18.2v-10A.26.26,0,0,1,11.17,8h7a.27.27,0,0,1,.27.26V9.61a.27.27,0,0,1-.27.26H12.89v2.87h5a.27.27,0,0,1,.27.26v1.31a.26.26,0,0,1-.27.26h-5V18.2a.27.27,0,0,1-.26.27H11.17A.26.26,0,0,1,10.91,18.2Z"/><path class="cls-1" d="M20,18.19v-10a.26.26,0,0,1,.26-.26h1.45a.26.26,0,0,1,.26.26v10a.26.26,0,0,1-.26.26H20.26A.26.26,0,0,1,20,18.19Z"/><path class="cls-1" d="M26,11.36v6.83a.26.26,0,0,1-.27.26H24.25a.26.26,0,0,1-.27-.26v-10a.27.27,0,0,1,.27-.26h1.21a.28.28,0,0,1,.21.1l5.08,6.42V8.18A.26.26,0,0,1,31,7.92h1.46a.26.26,0,0,1,.26.26v10a.26.26,0,0,1-.26.26h-.84a.25.25,0,0,1-.21-.1Z"/><path class="cls-1" d="M41.85,16.47H36.69a.27.27,0,0,0-.24.15l-.76,1.68a.27.27,0,0,1-.24.15H33.88a.27.27,0,0,1-.25-.37l4.49-10a.26.26,0,0,1,.24-.16h1.82a.25.25,0,0,1,.24.16l4.49,10a.26.26,0,0,1-.24.37H43.08a.27.27,0,0,1-.24-.15l-.75-1.67A.26.26,0,0,0,41.85,16.47Zm-2.58-6.33-2,4.48h3.91Z"/><path class="cls-1" d="M64,18.45H56.64a.25.25,0,0,1-.26-.26v-10a.26.26,0,0,1,.26-.26H64a.26.26,0,0,1,.26.26v1.4a.25.25,0,0,1-.26.26H58.35v2.42h5.43a.26.26,0,0,1,.26.27v1.32a.25.25,0,0,1-.26.26H58.35V16.5H64a.26.26,0,0,1,.26.26v1.43A.25.25,0,0,1,64,18.45Z"/><path class="cls-1" d="M52,13.8l-.46-.67.37-.55,2.89-4.24a.26.26,0,0,0-.22-.41H53a.25.25,0,0,0-.22.12l-2.5,3.8-2.55-3.8a.25.25,0,0,0-.22-.12H46a.26.26,0,0,0-.21.41l2.91,4.24.38.55-.46.67L45.7,18a.26.26,0,0,0,.21.41h1.6a.27.27,0,0,0,.22-.11l2.59-3.84,2.59,3.84a.27.27,0,0,0,.22.11h1.6a.26.26,0,0,0,.21-.41Z"/><path class="cls-2" d="M14.72,0H0V14.72a3.75,3.75,0,0,0,3.75,3.75H8.67a.27.27,0,0,0,.27-.27V16.76a.27.27,0,0,0-.27-.26H3.75A1.78,1.78,0,0,1,2,14.72V2H14.72A1.78,1.78,0,0,1,16.5,3.75v2a.26.26,0,0,0,.26.26H18.2a.27.27,0,0,0,.27-.26v-2A3.75,3.75,0,0,0,14.72,0Z"/></g></g></svg>