<svg xmlns="http://www.w3.org/2000/svg" width="120" height="120"  fill="#282f49" xmlns:v="https://vecta.io/nano"><rect width="12" height="2" rx="1" transform="matrix(0 1 -1 0 7 0)"/><rect width="12" height="2" rx="1" transform="matrix(0 1 -1 0 7 108)"/><rect width="12" height="2" rx="1" transform="matrix(0 1 -1 0 7 54)"/><rect width="12" height="2" rx="1" transform="matrix(0 1 -1 0 7 27)"/><rect width="12" height="2" rx="1" transform="matrix(0 1 -1 0 7 81)"/><rect width="12" height="2" rx="1" transform="matrix(0 1 -1 0 115 0)"/><rect width="12" height="2" rx="1" transform="matrix(0 1 -1 0 115 108)"/><rect width="12" height="2" rx="1" transform="matrix(0 1 -1 0 115 54)"/><rect width="12" height="2" rx="1" transform="matrix(0 1 -1 0 115 27)"/><rect width="12" height="2" rx="1" transform="matrix(0 1 -1 0 115 81)"/><rect width="12" height="2" rx="1" transform="matrix(0 1 -1 0 61 0)"/><rect width="12" height="2" rx="1" transform="matrix(0 1 -1 0 61 108)"/><rect width="12" height="2" rx="1" transform="matrix(0 1 -1 0 61 54)"/><rect width="12" height="2" rx="1" transform="matrix(0 1 -1 0 61 27)"/><rect width="12" height="2" rx="1" transform="matrix(0 1 -1 0 61 81)"/><rect width="12" height="2" rx="1" transform="matrix(0 1 -1 0 34 0)"/><rect width="12" height="2" rx="1" transform="matrix(0 1 -1 0 34 108)"/><rect width="12" height="2" rx="1" transform="matrix(0 1 -1 0 34 54)"/><rect width="12" height="2" rx="1" transform="matrix(0 1 -1 0 34 27)"/><rect width="12" height="2" rx="1" transform="matrix(0 1 -1 0 34 81)"/><rect width="12" height="2" rx="1" transform="matrix(0 1 -1 0 88 0)"/><rect width="12" height="2" rx="1" transform="matrix(0 1 -1 0 88 108)"/><rect width="12" height="2" rx="1" transform="matrix(0 1 -1 0 88 54)"/><rect width="12" height="2" rx="1" transform="matrix(0 1 -1 0 88 27)"/><rect width="12" height="2" rx="1" transform="matrix(0 1 -1 0 88 81)"/><rect width="12" height="2" rx="1" transform="matrix(-1 0 0 -1 12 7)"/><rect width="12" height="2" rx="1" transform="matrix(-1 0 0 -1 12 115)"/><rect width="12" height="2" rx="1" transform="matrix(-1 0 0 -1 12 61)"/><rect width="12" height="2" rx="1" transform="matrix(-1 0 0 -1 12 34)"/><rect width="12" height="2" rx="1" transform="matrix(-1 0 0 -1 12 88)"/><rect width="12" height="2" rx="1" transform="matrix(-1 0 0 -1 120 7)"/><rect width="12" height="2" rx="1" transform="matrix(-1 0 0 -1 120 115)"/><rect width="12" height="2" rx="1" transform="matrix(-1 0 0 -1 120 61)"/><rect width="12" height="2" rx="1" transform="matrix(-1 0 0 -1 120 34)"/><rect width="12" height="2" rx="1" transform="matrix(-1 0 0 -1 120 88)"/><rect width="12" height="2" rx="1" transform="matrix(-1 0 0 -1 66 7)"/><rect width="12" height="2" rx="1" transform="matrix(-1 0 0 -1 66 115)"/><rect width="12" height="2" rx="1" transform="matrix(-1 0 0 -1 66 61)"/><rect width="12" height="2" rx="1" transform="matrix(-1 0 0 -1 66 34)"/><rect width="12" height="2" rx="1" transform="matrix(-1 0 0 -1 66 88)"/><rect width="12" height="2" rx="1" transform="matrix(-1 0 0 -1 39 7)"/><rect width="12" height="2" rx="1" transform="matrix(-1 0 0 -1 39 115)"/><rect width="12" height="2" rx="1" transform="matrix(-1 0 0 -1 39 61)"/><rect width="12" height="2" rx="1" transform="matrix(-1 0 0 -1 39 34)"/><rect width="12" height="2" rx="1" transform="matrix(-1 0 0 -1 39 88)"/><rect width="12" height="2" rx="1" transform="matrix(-1 0 0 -1 93 7)"/><rect width="12" height="2" rx="1" transform="matrix(-1 0 0 -1 93 115)"/><rect width="12" height="2" rx="1" transform="matrix(-1 0 0 -1 93 61)"/><rect width="12" height="2" rx="1" transform="matrix(-1 0 0 -1 93 34)"/><rect width="12" height="2" rx="1" transform="matrix(-1 0 0 -1 93 88)"/></svg>