<svg xmlns="http://www.w3.org/2000/svg" viewBox="0 0 480 480"  fill="#009fe3" xmlns:v="https://vecta.io/nano"><path d="M89.9 130.5c22.7 0 41.2-18.4 41.2-41.2 0-22.7-18.4-41.2-41.2-41.2-22.7 0-41.2 18.4-41.2 41.2 0 22.7 18.4 41.1 41.2 41.2zm0-66.4c13.9 0 25.2 11.3 25.2 25.2s-11.3 25.2-25.2 25.2-25.2-11.3-25.2-25.2S76 64.1 89.9 64.1zM448.2 355l-3.1-80.6 15-20.7-18.2-33.5 3.7-11.3 34.4-16.4v-33.4l-34.4-16.4-3.7-11.3 18.2-33.5-19.6-27-37.5 7-9.6-7-5-37.8-31.7-10.3-26.2 27.7h-11.8l-26.2-27.7-31.7 10.3-1.5 11.8-111-6.6-7.5-7.5-2.2-16.8-30-12.4L95.3 12H84.5L71.1 1.6 41.1 14 39 30.8l-7.7 7.7-16.8 2.1-12.4 30L12.5 84v10.8L2.2 108.1l9.9 23.9-11 141.4-.4 5.4v.3h0v.6c0 16.2 8.2 31.3 21.7 40.2 13.6 8.8 30.7 10.2 45.5 3.6l47.3-19.7c-7.7 21.6 1.2 45.7 21.1 57.1l-73 23.5c-24.2 4.8-40.7 27.2-38.3 51.7s23 43.2 47.6 43.3h.4L367.1 464l4.5 10.8L397 480l20.6-20 5.3-1.7 28.5 3.7 17.2-19.4-7-27.9 1.1-5.4 17.4-22.9-8.2-24.6-23.7-6.8zm-173-309.8l12.5-4.1 24 25.4h25.6l24-25.4 12.6 4.1 4.5 34.6 20.7 15 34.4-6.4 7.7 10.7-16.7 30.7 7.9 24.3 31.5 15v13.2l-31.5 15-7.9 24.3 16.7 30.7-7.7 10.7-34.4-6.4-20.7 15-4.5 34.6-12.6 4.1-24-25.4h-25.6l-24 25.4-12.5-4.1-4.5-34.6-20.7-15-34.4 6.4-7.7-10.7 16.7-30.7-7.9-24.3-31.5-15v-13.2l31.5-15 7.9-24.3-16.7-30.7 7.7-10.7 34.4 6.4 20.7-15.1 4.5-34.5zM20.6 68l5.3-12.8 13-1.6 15.4-15.4 1.6-13L68.7 20 79 28h21.9l10.3-8 12.8 5.3 1.6 13L141 53.7l13 1.6 5.3 12.8-8.1 10.3v21.9l8.1 10.3-5.3 12.8-13 1.6-15.4 15.4-1.6 13-12.8 5.3-10.3-8.1H79l-10.3 8.1-12.8-5.3-1.6-13-15.4-15.5-13-1.6-5.3-12.8 8.1-10.3V78.4L20.6 68zm-4 211.8l.1-1.2c1.6-16.5 16.2-28.6 32.7-27.1s28.7 15.9 27.5 32.4c-1.3 16.5-15.6 28.9-32.1 27.8-16.6-1.2-29.2-15.4-28.2-31.9zm143.8 7.9a32 32 0 1 1 0 64 32 32 0 1 1 0-64zM40.5 431.5c0-12.4 7.3-23.7 18.5-28.9l7.7-2.5c11.8-2.1 23.9 2.6 31.1 12.2s8.5 22.5 3.2 33.3a32.01 32.01 0 0 1-28.2 17.9h-.4c-17.6-.1-31.9-14.4-31.9-32zm69.3 30c8.7-10.8 12.3-24.8 9.9-38.5-2.5-13.6-10.7-25.6-22.6-32.6l78-25.1c16.9-5.3 29.5-19.4 32.8-36.7s-3.1-35.1-16.8-46.3c-13.7-11.1-32.4-13.8-48.7-7l-48.5 20.2c7-20 .1-42.1-17-54.6-17.1-12.4-40.3-12.2-57.2.7l8-101.9 3.9.5 7.7 7.7 2.1 16.8 30 12.4 13.3-10.4h10.8l13.3 10.4 29.9-12.4 2.1-16.8 7.7-7.7 16.8-2.1 12.4-30-10.4-13.3V83.9l10.4-13.3-6.1-14.8 85.7 5.1L256 71l-9.6 7-37.5-7-19.6 27 18.2 33.5-3.7 11.2-34.4 16.4v33.4l34.4 16.4 3.7 11.3-18.5 33.5 19.6 27 37.5-7 9.6 7 5 37.8 31.7 10.3 26.2-27.7h11.8l26.2 27.7 31.7-10.3 5-37.8 9.6-7 26.3 4.9 1.9 50-2-4.9-25.4-5.2-20.7 20-5.3 1.8-28.5-3.7L332 356l7 27.9-1.1 5.4-17.4 22.9 8.2 24.6 27.7 7.9 4.1 3.7v.1l-250.7 13zm338-59.1l-2.6 12.6 5.9 23.2-6 6.8-23.8-3-12.2 4-17.1 16.6-8.8-1.8-9.2-22.1-9.6-8.5-23-6.6-2.9-8.6 14.5-19 2.6-12.6-5.9-23.2 6-6.8 23.8 3.1 12.2-4 17.2-16.7 8.8 1.8 9.2 22.1 9.6 8.5 23 6.5 2.9 8.6-14.6 19.1zM64.5 279.7c0 8.8-7.2 16-16 16s-16-7.2-16-16 7.2-16 16-16 16 7.1 16 16zm111.9 39.9c0 8.8-7.2 16-16 16s-16-7.2-16-16 7.2-16 16-16 16 7.2 16 16zM88.5 431.5c0 8.8-7.2 16-16 16s-16-7.2-16-16 7.2-16 16-16 16 7.1 16 16zm311.6-71.9c-22.1 0-40 17.9-40 40s17.9 40 40 40 40-17.9 40-40c-.1-22.1-18-40-40-40zm0 63.9c-13.2 0-24-10.7-24-24s10.7-24 24-24 24 10.7 24 24-10.8 24-24 24zm-79.9-167.8c44.1 0 79.9-35.8 79.9-79.9s-35.8-79.9-79.9-79.9-79.9 35.8-79.9 79.9 35.8 79.8 79.9 79.9zm0-143.8c35.3 0 63.9 28.6 63.9 63.9s-28.6 63.9-63.9 63.9-63.9-28.6-63.9-63.9 28.6-63.9 63.9-63.9zm0 111.8c26.5 0 47.9-21.5 47.9-47.9s-21.5-47.9-47.9-47.9c-26.5 0-47.9 21.5-47.9 47.9 0 26.5 21.4 47.9 47.9 47.9zm0-79.9a32 32 0 1 1 0 64 32 32 0 1 1 0-64zM432.1 24c0 13.2 10.7 24 24 24s24-10.7 24-24S469.3 0 456 0s-23.9 10.7-23.9 24zm31.9 0c0 4.4-3.6 8-8 8s-8-3.6-8-8 3.6-8 8-8 8 3.6 8 8zm-239.7-8c0 8.8-7.2 16-16 16s-16-7.2-16-16 7.2-16 16-16c8.9 0 16 7.2 16 16z"/></svg>