<svg xmlns="http://www.w3.org/2000/svg" xmlns:xlink="http://www.w3.org/1999/xlink" viewBox="0 0 64 64" xmlns:v="https://vecta.io/nano"><g fill="#009fe3"><path d="M63.3 49.1l-1-2.8c-.2-.6-1-1-1.6-.7-.6.2-1 1-.7 1.6l1 2.8c1 2.6.6 5.5-1 7.8s-4.2 3.6-7 3.6c-3 0-5.7-1.5-7.2-4l-1.3-2c.5-.8.7-1.7.7-2.6 0-2.9-2.3-5.2-5.2-5.2-2.5 0-4.5 1.7-5.1 4h-5.7c-.6-2.3-2.6-4-5.1-4-2.9 0-5.2 2.3-5.2 5.2a5.28 5.28 0 0 0 .7 2.6l-1.3 2c-1.6 2.5-4.3 4-7.2 4-2.8 0-5.4-1.3-7-3.6s-2-5.2-1-7.8l6-16.1c1.5-4.1 5.5-6.9 9.9-6.9h26.1c4.4 0 8.4 2.8 9.9 6.9l1 2.8c.2.6 1 1 1.6.7.6-.2 1-1 .7-1.6l-1-2.8c-1.9-5.1-6.8-8.5-12.2-8.5h-2.9c-.6-3.4-3.6-6-7.1-6h-1.7v-.9a6.7 6.7 0 0 0-6.7-6.7H13.4a4.23 4.23 0 0 1-4.2-4.2 4.23 4.23 0 0 1 4.2-4.2H32c.7 0 1.2-.6 1.2-1.2S32.7 0 32 0H13.4a6.7 6.7 0 1 0 0 13.4h13.1a4.23 4.23 0 0 1 4.2 4.2v.9H29c-3.6 0-6.5 2.6-7.1 6H19c-5.4 0-10.4 3.4-12.2 8.5l-6 16.1c-1.3 3.4-.8 7.1 1.3 10.1s5.4 4.7 9 4.7c3.8 0 7.3-1.9 9.4-5.2l.9-1.5c.8.5 1.7.8 2.7.8 2.5 0 4.5-1.7 5.1-4h5.7c.6 2.3 2.6 4 5.1 4 1 0 1.9-.3 2.7-.8l.9 1.5c2 3.3 5.5 5.2 9.4 5.2 3.7 0 7-1.7 9-4.7 2.1-2.9 2.6-6.6 1.3-10.1h0zM29 21h6c2.2 0 4 1.5 4.6 3.5H24.4c.6-2 2.4-3.5 4.6-3.5zm-4.9 34.5a2.69 2.69 0 1 1 0-5.4 2.69 2.69 0 1 1 0 5.4zm13.1-2.8a2.69 2.69 0 1 1 5.4 0 2.69 2.69 0 0 1-2.7 2.7c-1.5 0-2.7-1.1-2.7-2.7z"/><use xlink:href="#B"/><use xlink:href="#B" x="-11"/><path d="M19.6 31.1c-2 0-3.6 1.5-3.7 3.5-1.9.1-3.5 1.7-3.5 3.7s1.5 3.6 3.5 3.7c.1 1.9 1.7 3.5 3.7 3.5s3.6-1.5 3.7-3.5c1.9-.1 3.5-1.7 3.5-3.7s-1.5-3.6-3.5-3.7c0-1.9-1.7-3.5-3.7-3.5zm4.8 7.2c0 .7-.6 1.2-1.2 1.2h-1c-.7 0-1.2.6-1.2 1.2v1c0 .7-.6 1.2-1.2 1.2s-1.2-.6-1.2-1.2v-1c0-.7-.6-1.2-1.2-1.2h-1c-.7 0-1.2-.6-1.2-1.2s.6-1.2 1.2-1.2h1c.7 0 1.2-.6 1.2-1.2v-1c0-.7.6-1.2 1.2-1.2s1.2.6 1.2 1.2v1c0 .7.6 1.2 1.2 1.2h1c.6 0 1.2.6 1.2 1.2zm33.5 3.2c0 .3.1.6.4.9.2.2.5.4.9.4.3 0 .6-.1.9-.4.2-.2.4-.5.4-.9 0-.3-.1-.6-.4-.9-.2-.2-.5-.4-.9-.4-.3 0-.6.1-.9.4s-.4.6-.4.9z"/></g><defs ><path id="B" d="M43.6 38.3c0 2.2 1.8 4 4 4s4-1.8 4-4-1.8-4-4-4-4 1.8-4 4zm5.5 0a1.54 1.54 0 0 1-1.5 1.5 1.54 1.54 0 0 1-1.5-1.5 1.54 1.54 0 0 1 1.5-1.5 1.54 1.54 0 0 1 1.5 1.5z"/></defs></svg>