<svg xmlns="http://www.w3.org/2000/svg" viewBox="0 0 480.2 480.2"  fill="#009fe3" xmlns:v="https://vecta.io/nano"><path d="M266.1 240.1c8.8-9.9 8-25.1-1.9-33.9-4.4-3.9-10.1-6.1-16-6.1v-8h-16v8h-16c-4.4 0-8 3.6-8 8v64c0 4.4 3.6 8 8 8h16v8h16v-8c13.3 0 24-10.8 24-24 0-5.9-2.2-11.6-6.1-16zm-17.9 24h-24v-16h24c4.4 0 8 3.6 8 8s-3.6 8-8 8zm0-32h-24v-16h24c4.4 0 8 3.6 8 8s-3.6 8-8 8zm231.4 17.8c-2.4-12.3-11.8-22-24-24.9h0l-5.7-62.3c14.7-9.8 18.6-29.7 8.8-44.4-5.9-8.9-15.9-14.2-26.6-14.2-5.5 0-11 1.5-15.7 4.3l-152.8-70C267.1 21.1 256 4.3 238.7.7c-17.3-3.5-34.1 7.6-37.7 24.9-.2 1.2-.4 2.4-.5 3.6L83.3 70.6c-5.5-4.2-12.2-6.4-19-6.4-17.7 0-32 14.4-31.9 32.1 0 10.7 5.4 20.7 14.4 26.6L27.3 264.6c-17.4 2.5-29.5 18.7-27 36.2s18.7 29.5 36.2 27l1.6-.3 35.2 82.3c-12.3 12.5-12.2 32.8.4 45.2s32.8 12.2 45.2-.3c1.7-1.7 3.2-3.6 4.5-5.7l85.6 6c3.8 17.2 20.8 28.1 38 24.3 13.9-3.1 24.1-15 25-29.2L386.5 420c6.5 16.4 25.1 24.5 41.5 17.9s24.5-25.1 17.9-41.5c-3.2-8.1-9.6-14.5-17.6-17.8l26-91.1c17.4-3.5 28.7-20.3 25.3-37.6zm-47.4-129.8c8.8 0 16 7.2 16 16s-7.2 16-16 16-16-7.2-16-16 7.2-16 16-16zM185.4 182l-37.5-29.2 30.3-39.5 52 4.8 3.3 42.4a79.41 79.41 0 0 0-48.1 21.5zm54.8-5.9c35.3 0 64 28.7 64 64s-28.7 64-64 64-64-28.7-64-64 28.7-64 64-64zm-65.3 18c-9.5 13.3-14.6 29.2-14.7 45.6L55.7 274.5c-.2-.2-.4-.5-.6-.7l83-108.3 36.8 28.6zM63.3 288.9l98.5-32.8c2.7 13.3 8.7 25.6 17.6 35.9l-47.9 63.8L62.8 305c.9-2.9 1.4-5.8 1.4-8.8 0-2.5-.3-5-.9-7.3zM191 303.1c29.7 23.4 71.8 22.7 100.6-1.8l14 13.1L168.4 383l-24.1-17.8 46.7-62.1zm111.8-13.3c9.6-12.1 15.6-26.7 17-42l36.7 2.9-34.5 55.6-1.1.5-18.1-17zm71.7-37.6l41.8 3.3c0 .2-.1.4-.1.6 0 1 .2 1.9.3 2.9l-67.2 33.6 25.2-40.4zm9.5-15.3l43.1-69.3c1.7.3 3.4.5 5.1.5.7 0 1.4-.2 2.1-.2l5.3 57.6a31.48 31.48 0 0 0-18.7 14.4l-36.9-3zm28.3-75.9L366 235.4l-46.3-3.7c-1-9.5-3.8-18.8-8.1-27.4l94.5-49.8c1.8 2.5 3.9 4.7 6.2 6.5zm-11.7-21.5h0l-97.5 51.3c-13.1-16.8-32.4-27.6-53.6-30.1l-3.2-41.1 154.1 14.3c-.1.7-.2 1.4-.2 2.2 0 1.2.2 2.3.4 3.4zM256.5 52.7l141.7 64.9-153.1-14.2-3.2-41c5.7-1.8 10.7-5.1 14.6-9.7zm-24.3-36.6c8.8 0 16 7.2 16 16s-7.2 16-16 16-16-7.2-16-16 7.2-16 16-16zm-13.8 44.8c2.4 1.2 5 2.1 7.6 2.6h0l3 38.4-39.2-3.6 28.6-37.4zm-15.3-15.7c.8 1.9 1.9 3.7 3 5.3l-35.3 46-75.4-7c-.4-1.9-1-3.8-1.8-5.7l109.5-38.6zM94.6 105.5l64.8 6-24.1 31.5-42.4-33c.7-1.4 1.2-2.9 1.7-4.5zM64.2 80.1c8.8 0 16 7.2 16 16s-7.2 16-16 16-16-7.2-16-16 7.2-16 16-16zm-2.1 47.8c.7.1 1.4.2 2.1.2 6.6 0 13-2 18.3-5.8l43 33.4-81.7 106.6 18.3-134.4zM32.2 312.1c-8.8 0-16-7.2-16-16s7.2-16 16-16 16 7.2 16 16-7.2 16-16 16zm20.4 8.5c.7-.6 1.5-1.1 2.1-1.8l67.2 49.7-23.8 31.8c-.6 0-1.2-.2-1.9-.2-3 0-6.1.5-9 1.4l-34.6-80.9zm43.6 127.5c-8.8 0-16-7.2-16-16s7.2-16 16-16 16 7.2 16 16-7.2 16-16 16zm21.4-39.6c-1.1-1-2.3-2-3.5-2.9l20.7-27.6 17.6 13-34.8 17.5zm92.1 30.5l-81.6-5.8c0-.4.1-.7.1-1.1 0-3.5-.7-6.9-1.8-10.1l40.4-20.2 44.5 32.9c-.6 1.3-1.2 2.8-1.6 4.3zm30.5 25.1c-8.8 0-16-7.2-16-16s7.2-16 16-16 16 7.2 16 16-7.2 16-16 16zm12-45.6c-10.2-4.2-21.8-2.8-30.7 3.8h0l-38.6-28.6 122.9-61.5-53.6 86.3zM384.6 404h0L269 434.4c-1.1-2.2-2.4-4.3-3.9-6.2l59.6-95.9 63.9 59.9c-2.1 3.6-3.4 7.6-4 11.8zm47.6 4.1c0 8.8-7.2 16-16 16s-16-7.2-16-16 7.2-16 16-16 16 7.2 16 16zm-19.8-31.6c-4.4.5-8.7 2-12.5 4.2l-66.5-62.3 88.5-44.3c4 5.7 9.7 9.9 16.2 12.1l-25.7 90.3zm35.8-104.4c-8.8 0-16-7.2-16-16s7.2-16 16-16 16 7.2 16 16c0 8.9-7.2 16-16 16z"/></svg>