<svg xmlns="http://www.w3.org/2000/svg" viewBox="0 0 480 480"  fill="#009fe3" xmlns:v="https://vecta.io/nano"><path d="M104 200c-22.1 0-40 17.9-40 40s17.9 40 40 40 40-17.9 40-40-17.9-40-40-40zm0 64c-13.3 0-24-10.7-24-24s10.7-24 24-24 24 10.7 24 24-10.7 24-24 24zm160-152c22.1 0 40-17.9 40-40s-17.9-40-40-40-40 17.9-40 40 17.9 40 40 40zm0-64c13.3 0 24 10.7 24 24s-10.7 24-24 24-24-10.7-24-24 10.7-24 24-24zm192 195.4V216c-.1-20.1-15.1-37-35-39.5l-85.4-96.8c.3-2.6.4-5.2.4-7.8 0-39.8-32.2-72-72-72s-72 32.2-72 72c0 1.3.1 2.5.2 3.8l-92.5 92.5c-29 1.7-54.1 20.6-63.7 48s-1.7 57.9 20 77.3V416H8c-4.4 0-8 3.6-8 8v48c0 4.4 3.6 8 8 8h304c4.4 0 8-3.6 8-8v-48c0-4.4-3.6-8-8-8H152V293.5c18.4-16.2 27.1-40.7 23-64.8l84.9-84.9c1.4.1 2.7.2 4.1.2 4.1 0 8.1-.4 12.1-1.1l99.9 78.7v21.8c-14.6 6.4-24 20.7-24 36.6v80c0 2.8 1.4 5.4 3.8 6.8 2.4 1.5 5.3 1.6 7.8.4l32-16c2.7-1.4 4.4-4.2 4.4-7.2v-56h32v56c0 3 1.7 5.8 4.4 7.2l32 16c2.5 1.2 5.4 1.1 7.8-.4s3.8-4.1 3.8-6.8v-80c0-15.9-9.4-30.3-24-36.6zM264 16c30.9 0 56 25.1 56 56s-25.1 56-56 56-56-25.1-56-56 25.1-56 56-56zm40 448H16v-32h288v32zm-168-48H72V304.4a71.38 71.38 0 0 0 64 0V416zm-32-120c-30.9 0-56-25.1-56-56s25.1-56 56-56 56 25.1 56 56-25.1 56-56 56zm65.9-84.8c-9.1-20.7-27.4-35.9-49.4-41.2l75.2-75.2c7.2 21.3 23.9 38.1 45.2 45.3l-71 71.1zm161-112.6l70.8 80.2c-11 4.3-19.5 13.1-23.3 24.3l-83.7-66a72.86 72.86 0 0 0 36.2-38.5zM392 216c0-13.3 10.7-24 24-24s24 10.7 24 24v24h-48v-24zm72 131.1l-16-8V280c0-4.4-3.6-8-8-8h-48c-4.4 0-8 3.6-8 8v59.1l-16 8V280c0-13.3 10.7-24 24-24h48c13.3 0 24 10.7 24 24v67.1zM96 336c-4.4 0-8 3.6-8 8v48c0 4.4 3.6 8 8 8s8-3.6 8-8v-48c0-4.4-3.6-8-8-8zm90.3-205.7l-32 32c-2.1 2-2.9 5-2.2 7.8a7.85 7.85 0 0 0 5.7 5.7c2.8.7 5.8-.1 7.8-2.2l32-32a8 8 0 0 0-.1-11.2c-3.1-3.1-8-3.1-11.2-.1z"/></svg>