<svg xmlns="http://www.w3.org/2000/svg" viewBox="0 0 512 512"  fill="#009fe3" xmlns:v="https://vecta.io/nano"><path d="M123.2 113.8c-1.5-3.8-5.2-6.4-9.3-6.4s-7.8 2.5-9.3 6.4l-29.5 75.5c-2 5.1.5 10.9 5.7 13 1.2.5 2.4.7 3.6.7 4 0 7.8-2.4 9.3-6.4l5-12.8h30.4l5 12.8c2 5.1 7.8 7.7 13 5.7 5.1-2 7.7-7.8 5.7-13l-29.6-75.5zm-16.7 50l7.4-18.9 7.4 18.9h-14.8zm72 39.1c5.5 0 10-4.5 10-10v-75.5c0-5.5-4.5-10-10-10s-10 4.5-10 10v75.5c0 5.6 4.5 10 10 10zm296.6 32.6c-15.4 0-28.4 10.2-32.7 24.2h-21.8l-8.3-35.9c-1-4.5-5.2-7.7-9.7-7.7h-19.9c4-12.1 6.7-25.7 7.5-41.5h55c4.3 14 17.3 24.2 32.7 24.2 18.8 0 34.2-15.3 34.2-34.2s-15.3-34.2-34.2-34.2c-15.4 0-28.4 10.2-32.7 24.2h-55c-.8-14.5-3.2-28.4-7.1-41.5h19.6c4.6 0 8.7-3.3 9.7-7.7l8.3-35.9h21.8c4.3 14 17.3 24.2 32.7 24.2 18.8 0 34.2-15.3 34.2-34.2s-15.3-34.2-34.2-34.2c-15.4 0-28.4 10.2-32.7 24.2h-29.7c-4.6 0-8.4 3.1-9.6 7.2 0 .2-.1.3-.1.5l-8.3 35.9h-19.2c-6.9-15-16.1-28.7-27.5-40.9-3.8-4-10.1-4.2-14.1-.4s-4.2 10.1-.4 14.1c7.8 8.3 14.3 17.4 19.7 27.2h-31.8c-5.5 0-10 4.5-10 10s4.5 10 10 10H362c4.6 12.9 7.3 26.8 8.2 41.5h-61.8c-5.5 0-10 4.5-10 10s4.5 10 10 10h61.8c-.9 16.1-4.1 29.5-8.7 41.5h-40.2c-5.5 0-10 4.5-10 10s4.5 10 10 10h30.6c-6.2 10.7-13.4 20.5-20.7 30.5-15.8 21.4-31.9 43.4-38.5 75.4H174.4c-3.6-17.2-9.8-31.3-16.7-43.3 8.6-2.3 15-10.1 15-19.5v-2.9c8-2.4 15.7-5.6 23-9.6l2 2a20.06 20.06 0 0 0 28.4 0l20.1-20.1c7.8-7.9 7.8-20.6 0-28.5l-2.1-2.1c4-7.3 7.2-15.1 9.6-23.1h2.9c11.1 0 20.1-9 20.1-20.1v-28.4c0-11.1-9-20.1-20.1-20.1h-2.9c-2.4-8-5.6-15.7-9.6-23.1l2.1-2.1c7.8-7.8 7.8-20.6 0-28.5l-20.1-20.1a20.06 20.06 0 0 0-28.4 0l-2 2c-7.3-4-15-7.2-23-9.6V42c0-1.7-.2-3.3-.6-4.9 19.2-9.5 40.2-14.3 61.3-14h.3c9.8-.1 19.6.8 29.2 2.9 5.4 1.2 10.7-2.3 11.9-7.7s-2.3-10.7-7.7-11.9c-11-2.4-22.3-3.5-33.6-3.3-26.6-.4-52.9 6.3-76.4 19.3-1.5-.3-3-.5-4.5-.5h-28.4c-11.1 0-20.1 9-20.1 20.1v2.9c-8 2.4-15.7 5.6-23 9.6l-2-2a20.06 20.06 0 0 0-14.2-5.9c-5.3 0-10.5 2.4-14.3 6.2L30.5 72.9c-7.8 7.8-7.8 20.6 0 28.5l2.1 2.1c-4 7.3-7.2 15.1-9.6 23.1h-2.9C9 126.5 0 135.5 0 146.7V175c0 11.1 9 20.1 20.1 20.1H23c2.4 8 5.6 15.7 9.6 23.1l-2.1 2.1c-7.8 7.9-7.8 20.6 0 28.5l20.1 20.1a20.06 20.06 0 0 0 28.4 0l2-2c7.3 4 15 7.2 23 9.6v2.9c0 11.1 9 20.1 20.1 20.1h10.4c8.4 12.8 16.7 28.4 20.5 48.7-8 5.8-13.3 15.3-13.3 26 0 8.6 3.4 16.4 8.9 22.1-5.5 5.8-8.9 13.5-8.9 22.1 0 15 10.4 27.7 24.4 31.2v20c0 21.5 17.5 39 39 39h56.4c21.5 0 39-17.5 39-39v-20c14-3.5 24.3-16.1 24.3-31.2 0-8.6-3.4-16.4-8.9-22.1 5.5-5.8 8.9-13.6 8.9-22.1 0-10.7-5.2-20.2-13.3-26 5.4-28.9 20-48.7 35.3-69.6 9.7-13.2 19.5-26.6 27.3-42.4h20.1L403 272c1 4.5 5.2 7.7 9.7 7.7h29.7c4.3 14 17.3 24.2 32.7 24.2 18.8 0 34.2-15.3 34.2-34.2 0-18.8-15.4-34.2-34.2-34.2h0zm2.7-85c7.8 0 14.2 6.4 14.2 14.2s-6.3 14.2-14.2 14.2-14.1-6.4-14.1-14.2c0-7.9 6.3-14.2 14.1-14.2zm-2.7-105.1c7.8 0 14.2 6.4 14.2 14.2s-6.4 14.2-14.2 14.2-14.2-6.4-14.2-14.2 6.4-14.2 14.2-14.2zM152.8 268.7v10.6c0 .1-.1.1-.1.1h-12.6-.1-15.7l-.1-.1v-10.6c0-4.7-3.2-8.7-7.8-9.8a97.92 97.92 0 0 1-31.5-13.1c-1.6-1-3.5-1.6-5.4-1.6-2.6 0-5.1 1-7.1 2.9l-7.5 7.5h-.2l-20.1-20.1v-.2l7.5-7.5c3.3-3.3 3.9-8.5 1.4-12.4-6.2-9.7-10.5-20.3-13.1-31.5-1-4.6-5.1-7.8-9.8-7.8H20.1l-.1-.1v-28.4c0-.1.1-.1.1-.1h10.6c4.7 0 8.7-3.2 9.8-7.8a97.92 97.92 0 0 1 13.1-31.5 9.98 9.98 0 0 0-1.4-12.4l-7.5-7.5v-.2l20-20.1h.2l7.5 7.5c3.3 3.3 8.5 3.9 12.4 1.4a97.92 97.92 0 0 1 31.5-13.1c4.6-1 7.8-5.1 7.8-9.8V42.4c0-.1.1-.1.1-.1h28.4l.1.1V53c0 4.7 3.2 8.7 7.8 9.8A97.92 97.92 0 0 1 192 75.9a9.98 9.98 0 0 0 12.4-1.4L212 67h.2l20.1 20.1v.2l-7.5 7.5c-3.3 3.3-3.9 8.5-1.4 12.4a97.92 97.92 0 0 1 13.1 31.5c1 4.6 5.1 7.8 9.8 7.8h10.6l.1.1V175c0 .1-.1.1-.1.1h-10.6c-4.7 0-8.7 3.2-9.8 7.8a97.92 97.92 0 0 1-13.1 31.5 9.98 9.98 0 0 0 1.4 12.4l7.5 7.5v.2l-20.1 20.1h-.2l-7.5-7.5c-3.3-3.3-8.5-3.9-12.4-1.4a97.92 97.92 0 0 1-31.5 13.1 10.16 10.16 0 0 0-7.8 9.9h0zm128 200.8c0 10.5-8.5 19-19 19h-56.4c-10.5 0-19-8.5-19-19v-19h94.4v19h0zm12.3-39h-119a12.1 12.1 0 1 1 0-24.2h119a12.08 12.08 0 0 1 12.1 12.1c0 6.6-5.5 12.1-12.1 12.1zm0-44.3h-119a12.1 12.1 0 1 1 0-24.2h119a12.08 12.08 0 0 1 12.1 12.1c0 6.7-5.5 12.1-12.1 12.1zm182-102.3c-7.8 0-14.2-6.4-14.2-14.2s6.3-14.2 14.2-14.2c7.8 0 14.2 6.4 14.2 14.2s-6.4 14.2-14.2 14.2zm-173.7-243h0c1.5.7 3 1.1 4.5 1.1 3.7 0 7.2-2 8.9-5.5 2.5-4.9.4-11-4.5-13.4-4.9-2.5-10.9-.5-13.4 4.5-2.5 4.9-.4 10.9 4.5 13.3h0z"/></svg>