<svg xmlns="http://www.w3.org/2000/svg" viewBox="0 0 194.9 56"  fill="#fff" xmlns:v="https://vecta.io/nano"><path d="M33.1 55.2V25c0-.4.4-.8.8-.8h21.3c.4 0 .8.4.8.8v4.2c0 .4-.4.8-.8.8H39.1v8.7h15.2c.4 0 .8.4.8.8v4c0 .4-.4.8-.8.8H39.1v11c0 .4-.4.8-.8.8h-4.4c-.5 0-.8-.4-.8-.9 0 .1 0 0 0 0zm27.6 0V24.9c0-.4.4-.8.8-.8h4.4c.4 0 .8.4.8.8h0v30.3c0 .4-.4.8-.8.8h0-4.4c-.5 0-.8-.4-.8-.8zm18.1-20.7v20.7c0 .4-.4.8-.8.8h0-4.4c-.4 0-.8-.4-.8-.8V24.9c0-.4.4-.8.8-.8h0 3.7c.2 0 .5.1.6.3l15.4 19.5v-19c0-.4.4-.8.8-.8h0 4.4c.4 0 .8.4.8.8h0v30.3c0 .4-.4.8-.8.8h0-2.6c-.2 0-.5-.1-.6-.3L78.8 34.5zM127 50h-15.7c-.3 0-.6.2-.7.5l-2.3 5.1c-.1.3-.4.5-.7.5h-4.8c-.4 0-.8-.4-.8-.8 0-.1 0-.2.1-.3l13.6-30.3c.1-.3.4-.5.7-.5h5.5c.3 0 .6.2.7.5L136.2 55c.2.4 0 .9-.4 1.1-.1 0-.2.1-.3.1h-4.8c-.3 0-.6-.2-.7-.5l-2.3-5.1c-.1-.4-.4-.6-.7-.6zm-7.8-19.2l-6 13.5H125l-5.8-13.5zM194.1 56h-22.3c-.4 0-.8-.4-.8-.8V24.9c0-.4.4-.8.8-.8h0 22.3c.4 0 .8.4.8.8h0v4.2c0 .4-.4.8-.8.8h0H177v7.3h16.5c.4 0 .8.4.8.8v4c0 .4-.4.8-.8.8h0H177V50h17.1c.4 0 .8.4.8.8v4.3c0 .5-.3.9-.8.9zm-36.3-14.1l-1.4-2 1.1-1.7 8.8-12.9c.3-.4.2-.9-.2-1.1-.1-.1-.3-.1-.5-.1h-4.8c-.3 0-.5.1-.7.4L152.6 36l-7.7-11.5c-.2-.2-.4-.4-.7-.4h-4.8c-.4 0-.8.4-.8.8 0 .2 0 .3.1.4l8.9 12.9 1.1 1.7-1.4 2-8.8 12.9c-.2.4-.2.9.2 1.1.1.1.3.1.4.1h4.9c.3 0 .5-.1.7-.3l7.9-11.6 7.9 11.6c.2.2.4.4.7.3h4.8c.4 0 .8-.4.8-.8 0-.2 0-.3-.1-.4l-8.9-12.9zM44.7 0H0v44.7C0 50.9 5.1 56 11.4 56h14.9c.4 0 .8-.4.8-.8v-4.4c0-.4-.4-.8-.8-.8H11.4c-3 0-5.4-2.4-5.4-5.4V6h38.7c3 0 5.4 2.4 5.4 5.4h0v6c0 .4.4.8.8.8h4.4c.4 0 .8-.4.8-.8v-6C56 5.1 51 0 44.7 0z"/></svg>